# MagicaVoxel @ Ephtracy

# group
o 

# material
mtllib Crate.mtl
usemtl palette

# normals
vn -1 0 0
vn 1 0 0
vn 0 0 1
vn 0 0 -1
vn 0 -1 0
vn 0 1 0

# texcoords
vt 0.341797 0.5
vt 0.373047 0.5
vt 0.537109 0.5
vt 0.560547 0.5

# verts
v -1.5 0 1.5
v -1.5 0 -1.5
v -1.5 0.2 1.3
v -1.5 0.2 -1.3
v -1.5 2.8 1.3
v -1.5 2.8 -1.3
v -1.5 3 1.5
v -1.5 3 -1.5
v -1.4 0.2 1.3
v -1.4 0.2 1.1
v -1.4 0.2 1
v -1.4 0.2 0.8
v -1.4 0.2 0.7
v -1.4 0.2 0.5
v -1.4 0.2 0.4
v -1.4 0.2 0.2
v -1.4 0.2 0.1
v -1.4 0.2 -0.1
v -1.4 0.2 -0.2
v -1.4 0.2 -0.4
v -1.4 0.2 -0.5
v -1.4 0.2 -0.7
v -1.4 0.2 -0.8
v -1.4 0.2 -1
v -1.4 0.2 -1.1
v -1.4 0.2 -1.3
v -1.4 2.8 1.3
v -1.4 2.8 1.1
v -1.4 2.8 1
v -1.4 2.8 0.8
v -1.4 2.8 0.7
v -1.4 2.8 0.5
v -1.4 2.8 0.4
v -1.4 2.8 0.2
v -1.4 2.8 0.1
v -1.4 2.8 -0.1
v -1.4 2.8 -0.2
v -1.4 2.8 -0.4
v -1.4 2.8 -0.5
v -1.4 2.8 -0.7
v -1.4 2.8 -0.8
v -1.4 2.8 -1
v -1.4 2.8 -1.1
v -1.4 2.8 -1.3
v 1.3 0.2 1.5
v 1.3 0.2 1.4
v 1.3 0.2 -1.4
v 1.3 0.2 -1.5
v 1.3 2.8 1.5
v 1.3 2.8 1.4
v 1.3 2.8 -1.4
v 1.3 2.8 -1.5
v 1.3 2.9 1.3
v 1.3 2.9 1.1
v 1.3 2.9 1
v 1.3 2.9 0.8
v 1.3 2.9 0.7
v 1.3 2.9 0.5
v 1.3 2.9 0.4
v 1.3 2.9 0.2
v 1.3 2.9 0.1
v 1.3 2.9 -0.1
v 1.3 2.9 -0.2
v 1.3 2.9 -0.4
v 1.3 2.9 -0.5
v 1.3 2.9 -0.7
v 1.3 2.9 -0.8
v 1.3 2.9 -1
v 1.3 2.9 -1.1
v 1.3 2.9 -1.3
v 1.3 3 1.3
v 1.3 3 -1.3
v -1.3 0.2 1.5
v -1.3 0.2 1.4
v -1.3 0.2 -1.4
v -1.3 0.2 -1.5
v -1.3 2.8 1.5
v -1.3 2.8 1.4
v -1.3 2.8 -1.4
v -1.3 2.8 -1.5
v -1.3 2.9 1.3
v -1.3 2.9 1.1
v -1.3 2.9 1
v -1.3 2.9 0.8
v -1.3 2.9 0.7
v -1.3 2.9 0.5
v -1.3 2.9 0.4
v -1.3 2.9 0.2
v -1.3 2.9 0.1
v -1.3 2.9 -0.1
v -1.3 2.9 -0.2
v -1.3 2.9 -0.4
v -1.3 2.9 -0.5
v -1.3 2.9 -0.7
v -1.3 2.9 -0.8
v -1.3 2.9 -1
v -1.3 2.9 -1.1
v -1.3 2.9 -1.3
v -1.3 3 1.3
v -1.3 3 -1.3
v 1.4 0.2 1.3
v 1.4 0.2 1.1
v 1.4 0.2 1
v 1.4 0.2 0.8
v 1.4 0.2 0.7
v 1.4 0.2 0.5
v 1.4 0.2 0.4
v 1.4 0.2 0.2
v 1.4 0.2 0.1
v 1.4 0.2 -0.1
v 1.4 0.2 -0.2
v 1.4 0.2 -0.4
v 1.4 0.2 -0.5
v 1.4 0.2 -0.7
v 1.4 0.2 -0.8
v 1.4 0.2 -1
v 1.4 0.2 -1.1
v 1.4 0.2 -1.3
v 1.4 2.8 1.3
v 1.4 2.8 1.1
v 1.4 2.8 1
v 1.4 2.8 0.8
v 1.4 2.8 0.7
v 1.4 2.8 0.5
v 1.4 2.8 0.4
v 1.4 2.8 0.2
v 1.4 2.8 0.1
v 1.4 2.8 -0.1
v 1.4 2.8 -0.2
v 1.4 2.8 -0.4
v 1.4 2.8 -0.5
v 1.4 2.8 -0.7
v 1.4 2.8 -0.8
v 1.4 2.8 -1
v 1.4 2.8 -1.1
v 1.4 2.8 -1.3
v 1.5 0 1.5
v 1.5 0 -1.5
v 1.5 0.2 1.3
v 1.5 0.2 -1.3
v 1.5 2.8 1.3
v 1.5 2.8 -1.3
v 1.5 3 1.5
v 1.5 3 -1.5
v -1.5 0 1.5
v -1.5 3 1.5
v -1.3 0.2 1.5
v -1.3 2.8 1.5
v 1.3 0.2 1.5
v 1.3 2.8 1.5
v 1.5 0 1.5
v 1.5 3 1.5
v -1.3 0.2 1.4
v -1.3 2.8 1.4
v -1.1 0.2 1.4
v -1.1 2.8 1.4
v -1 0.2 1.4
v -1 2.8 1.4
v -0.8 0.2 1.4
v -0.8 2.8 1.4
v -0.7 0.2 1.4
v -0.7 2.8 1.4
v -0.5 0.2 1.4
v -0.5 2.8 1.4
v -0.4 0.2 1.4
v -0.4 2.8 1.4
v -0.2 0.2 1.4
v -0.2 2.8 1.4
v -0.1 0.2 1.4
v -0.1 2.8 1.4
v 0.1 0.2 1.4
v 0.1 2.8 1.4
v 0.2 0.2 1.4
v 0.2 2.8 1.4
v 0.4 0.2 1.4
v 0.4 2.8 1.4
v 0.5 0.2 1.4
v 0.5 2.8 1.4
v 0.7 0.2 1.4
v 0.7 2.8 1.4
v 0.8 0.2 1.4
v 0.8 2.8 1.4
v 1 0.2 1.4
v 1 2.8 1.4
v 1.1 0.2 1.4
v 1.1 2.8 1.4
v 1.3 0.2 1.4
v 1.3 2.8 1.4
v -1.5 0.2 -1.3
v -1.5 2.8 -1.3
v -1.4 0.2 -1.3
v -1.4 2.8 -1.3
v -1.3 2.9 -1.3
v -1.3 3 -1.3
v 1.3 2.9 -1.3
v 1.3 3 -1.3
v 1.4 0.2 -1.3
v 1.4 2.8 -1.3
v 1.5 0.2 -1.3
v 1.5 2.8 -1.3
v -1.5 0.2 1.3
v -1.5 2.8 1.3
v -1.4 0.2 1.3
v -1.4 2.8 1.3
v -1.3 2.9 1.3
v -1.3 3 1.3
v 1.3 2.9 1.3
v 1.3 3 1.3
v 1.4 0.2 1.3
v 1.4 2.8 1.3
v 1.5 0.2 1.3
v 1.5 2.8 1.3
v -1.3 0.2 -1.4
v -1.3 2.8 -1.4
v -1.1 0.2 -1.4
v -1.1 2.8 -1.4
v -1 0.2 -1.4
v -1 2.8 -1.4
v -0.8 0.2 -1.4
v -0.8 2.8 -1.4
v -0.7 0.2 -1.4
v -0.7 2.8 -1.4
v -0.5 0.2 -1.4
v -0.5 2.8 -1.4
v -0.4 0.2 -1.4
v -0.4 2.8 -1.4
v -0.2 0.2 -1.4
v -0.2 2.8 -1.4
v -0.1 0.2 -1.4
v -0.1 2.8 -1.4
v 0.1 0.2 -1.4
v 0.1 2.8 -1.4
v 0.2 0.2 -1.4
v 0.2 2.8 -1.4
v 0.4 0.2 -1.4
v 0.4 2.8 -1.4
v 0.5 0.2 -1.4
v 0.5 2.8 -1.4
v 0.7 0.2 -1.4
v 0.7 2.8 -1.4
v 0.8 0.2 -1.4
v 0.8 2.8 -1.4
v 1 0.2 -1.4
v 1 2.8 -1.4
v 1.1 0.2 -1.4
v 1.1 2.8 -1.4
v 1.3 0.2 -1.4
v 1.3 2.8 -1.4
v -1.5 0 -1.5
v -1.5 3 -1.5
v -1.3 0.2 -1.5
v -1.3 2.8 -1.5
v 1.3 0.2 -1.5
v 1.3 2.8 -1.5
v 1.5 0 -1.5
v 1.5 3 -1.5
v -1.5 0 1.5
v 1.5 0 1.5
v -1.5 0 -1.5
v 1.5 0 -1.5
v -1.3 2.8 1.5
v 1.3 2.8 1.5
v -1.3 2.8 1.4
v -1.1 2.8 1.4
v -1 2.8 1.4
v -0.8 2.8 1.4
v -0.7 2.8 1.4
v -0.5 2.8 1.4
v -0.4 2.8 1.4
v -0.2 2.8 1.4
v -0.1 2.8 1.4
v 0.1 2.8 1.4
v 0.2 2.8 1.4
v 0.4 2.8 1.4
v 0.5 2.8 1.4
v 0.7 2.8 1.4
v 0.8 2.8 1.4
v 1 2.8 1.4
v 1.1 2.8 1.4
v 1.3 2.8 1.4
v -1.5 2.8 1.3
v -1.4 2.8 1.3
v 1.4 2.8 1.3
v 1.5 2.8 1.3
v -1.4 2.8 1.1
v 1.4 2.8 1.1
v -1.4 2.8 1
v 1.4 2.8 1
v -1.4 2.8 0.8
v 1.4 2.8 0.8
v -1.4 2.8 0.7
v 1.4 2.8 0.7
v -1.4 2.8 0.5
v 1.4 2.8 0.5
v -1.4 2.8 0.4
v 1.4 2.8 0.4
v -1.4 2.8 0.2
v 1.4 2.8 0.2
v -1.4 2.8 0.1
v 1.4 2.8 0.1
v -1.4 2.8 -0.1
v 1.4 2.8 -0.1
v -1.4 2.8 -0.2
v 1.4 2.8 -0.2
v -1.4 2.8 -0.4
v 1.4 2.8 -0.4
v -1.4 2.8 -0.5
v 1.4 2.8 -0.5
v -1.4 2.8 -0.7
v 1.4 2.8 -0.7
v -1.4 2.8 -0.8
v 1.4 2.8 -0.8
v -1.4 2.8 -1
v 1.4 2.8 -1
v -1.4 2.8 -1.1
v 1.4 2.8 -1.1
v -1.5 2.8 -1.3
v -1.4 2.8 -1.3
v 1.4 2.8 -1.3
v 1.5 2.8 -1.3
v -1.3 2.8 -1.4
v -1.1 2.8 -1.4
v -1 2.8 -1.4
v -0.8 2.8 -1.4
v -0.7 2.8 -1.4
v -0.5 2.8 -1.4
v -0.4 2.8 -1.4
v -0.2 2.8 -1.4
v -0.1 2.8 -1.4
v 0.1 2.8 -1.4
v 0.2 2.8 -1.4
v 0.4 2.8 -1.4
v 0.5 2.8 -1.4
v 0.7 2.8 -1.4
v 0.8 2.8 -1.4
v 1 2.8 -1.4
v 1.1 2.8 -1.4
v 1.3 2.8 -1.4
v -1.3 2.8 -1.5
v 1.3 2.8 -1.5
v -1.3 0.2 1.5
v 1.3 0.2 1.5
v -1.3 0.2 1.4
v -1.1 0.2 1.4
v -1 0.2 1.4
v -0.8 0.2 1.4
v -0.7 0.2 1.4
v -0.5 0.2 1.4
v -0.4 0.2 1.4
v -0.2 0.2 1.4
v -0.1 0.2 1.4
v 0.1 0.2 1.4
v 0.2 0.2 1.4
v 0.4 0.2 1.4
v 0.5 0.2 1.4
v 0.7 0.2 1.4
v 0.8 0.2 1.4
v 1 0.2 1.4
v 1.1 0.2 1.4
v 1.3 0.2 1.4
v -1.5 0.2 1.3
v -1.4 0.2 1.3
v 1.4 0.2 1.3
v 1.5 0.2 1.3
v -1.4 0.2 1.1
v 1.4 0.2 1.1
v -1.4 0.2 1
v 1.4 0.2 1
v -1.4 0.2 0.8
v 1.4 0.2 0.8
v -1.4 0.2 0.7
v 1.4 0.2 0.7
v -1.4 0.2 0.5
v 1.4 0.2 0.5
v -1.4 0.2 0.4
v 1.4 0.2 0.4
v -1.4 0.2 0.2
v 1.4 0.2 0.2
v -1.4 0.2 0.1
v 1.4 0.2 0.1
v -1.4 0.2 -0.1
v 1.4 0.2 -0.1
v -1.4 0.2 -0.2
v 1.4 0.2 -0.2
v -1.4 0.2 -0.4
v 1.4 0.2 -0.4
v -1.4 0.2 -0.5
v 1.4 0.2 -0.5
v -1.4 0.2 -0.7
v 1.4 0.2 -0.7
v -1.4 0.2 -0.8
v 1.4 0.2 -0.8
v -1.4 0.2 -1
v 1.4 0.2 -1
v -1.4 0.2 -1.1
v 1.4 0.2 -1.1
v -1.5 0.2 -1.3
v -1.4 0.2 -1.3
v 1.4 0.2 -1.3
v 1.5 0.2 -1.3
v -1.3 0.2 -1.4
v -1.1 0.2 -1.4
v -1 0.2 -1.4
v -0.8 0.2 -1.4
v -0.7 0.2 -1.4
v -0.5 0.2 -1.4
v -0.4 0.2 -1.4
v -0.2 0.2 -1.4
v -0.1 0.2 -1.4
v 0.1 0.2 -1.4
v 0.2 0.2 -1.4
v 0.4 0.2 -1.4
v 0.5 0.2 -1.4
v 0.7 0.2 -1.4
v 0.8 0.2 -1.4
v 1 0.2 -1.4
v 1.1 0.2 -1.4
v 1.3 0.2 -1.4
v -1.3 0.2 -1.5
v 1.3 0.2 -1.5
v -1.3 2.9 1.3
v 1.3 2.9 1.3
v -1.3 2.9 1.1
v 1.3 2.9 1.1
v -1.3 2.9 1
v 1.3 2.9 1
v -1.3 2.9 0.8
v 1.3 2.9 0.8
v -1.3 2.9 0.7
v 1.3 2.9 0.7
v -1.3 2.9 0.5
v 1.3 2.9 0.5
v -1.3 2.9 0.4
v 1.3 2.9 0.4
v -1.3 2.9 0.2
v 1.3 2.9 0.2
v -1.3 2.9 0.1
v 1.3 2.9 0.1
v -1.3 2.9 -0.1
v 1.3 2.9 -0.1
v -1.3 2.9 -0.2
v 1.3 2.9 -0.2
v -1.3 2.9 -0.4
v 1.3 2.9 -0.4
v -1.3 2.9 -0.5
v 1.3 2.9 -0.5
v -1.3 2.9 -0.7
v 1.3 2.9 -0.7
v -1.3 2.9 -0.8
v 1.3 2.9 -0.8
v -1.3 2.9 -1
v 1.3 2.9 -1
v -1.3 2.9 -1.1
v 1.3 2.9 -1.1
v -1.3 2.9 -1.3
v 1.3 2.9 -1.3
v -1.5 3 1.5
v 1.5 3 1.5
v -1.3 3 1.3
v 1.3 3 1.3
v -1.3 3 -1.3
v 1.3 3 -1.3
v -1.5 3 -1.5
v 1.5 3 -1.5

# faces
f 3/2/1 2/2/1 1/2/1
f 4/2/1 2/2/1 3/2/1
f 5/2/1 3/2/1 1/2/1
f 6/2/1 2/2/1 4/2/1
f 7/2/1 5/2/1 1/2/1
f 7/2/1 6/2/1 5/2/1
f 8/2/1 2/2/1 6/2/1
f 8/2/1 6/2/1 7/2/1
f 27/4/1 10/4/1 9/4/1
f 28/3/1 11/3/1 10/3/1
f 28/4/1 10/4/1 27/4/1
f 29/4/1 12/4/1 11/4/1
f 29/3/1 11/3/1 28/3/1
f 30/3/1 13/3/1 12/3/1
f 30/4/1 12/4/1 29/4/1
f 31/4/1 14/4/1 13/4/1
f 31/3/1 13/3/1 30/3/1
f 32/3/1 15/3/1 14/3/1
f 32/4/1 14/4/1 31/4/1
f 33/4/1 16/4/1 15/4/1
f 33/3/1 15/3/1 32/3/1
f 34/3/1 17/3/1 16/3/1
f 34/4/1 16/4/1 33/4/1
f 35/4/1 18/4/1 17/4/1
f 35/3/1 17/3/1 34/3/1
f 36/3/1 19/3/1 18/3/1
f 36/4/1 18/4/1 35/4/1
f 37/4/1 20/4/1 19/4/1
f 37/3/1 19/3/1 36/3/1
f 38/3/1 21/3/1 20/3/1
f 38/4/1 20/4/1 37/4/1
f 39/4/1 22/4/1 21/4/1
f 39/3/1 21/3/1 38/3/1
f 40/3/1 23/3/1 22/3/1
f 40/4/1 22/4/1 39/4/1
f 41/4/1 24/4/1 23/4/1
f 41/3/1 23/3/1 40/3/1
f 42/3/1 25/3/1 24/3/1
f 42/4/1 24/4/1 41/4/1
f 43/4/1 26/4/1 25/4/1
f 43/3/1 25/3/1 42/3/1
f 44/4/1 26/4/1 43/4/1
f 49/2/1 46/2/1 45/2/1
f 50/2/1 46/2/1 49/2/1
f 51/2/1 48/2/1 47/2/1
f 52/2/1 48/2/1 51/2/1
f 71/2/1 54/2/1 53/2/1
f 71/2/1 70/2/1 69/2/1
f 71/2/1 69/2/1 68/2/1
f 71/2/1 68/2/1 67/2/1
f 71/2/1 67/2/1 66/2/1
f 71/2/1 66/2/1 65/2/1
f 71/2/1 65/2/1 64/2/1
f 71/2/1 64/2/1 63/2/1
f 71/2/1 63/2/1 62/2/1
f 71/2/1 62/2/1 61/2/1
f 71/2/1 61/2/1 60/2/1
f 71/2/1 60/2/1 59/2/1
f 71/2/1 59/2/1 58/2/1
f 71/2/1 58/2/1 57/2/1
f 71/2/1 57/2/1 56/2/1
f 71/2/1 56/2/1 55/2/1
f 71/2/1 55/2/1 54/2/1
f 72/2/1 70/2/1 71/2/1
f 73/2/2 74/2/2 77/2/2
f 77/2/2 74/2/2 78/2/2
f 75/2/2 76/2/2 79/2/2
f 79/2/2 76/2/2 80/2/2
f 81/2/2 82/2/2 99/2/2
f 97/2/2 98/2/2 99/2/2
f 96/2/2 97/2/2 99/2/2
f 95/2/2 96/2/2 99/2/2
f 94/2/2 95/2/2 99/2/2
f 93/2/2 94/2/2 99/2/2
f 92/2/2 93/2/2 99/2/2
f 91/2/2 92/2/2 99/2/2
f 90/2/2 91/2/2 99/2/2
f 89/2/2 90/2/2 99/2/2
f 88/2/2 89/2/2 99/2/2
f 87/2/2 88/2/2 99/2/2
f 86/2/2 87/2/2 99/2/2
f 85/2/2 86/2/2 99/2/2
f 84/2/2 85/2/2 99/2/2
f 83/2/2 84/2/2 99/2/2
f 82/2/2 83/2/2 99/2/2
f 99/2/2 98/2/2 100/2/2
f 101/4/2 102/4/2 119/4/2
f 102/3/2 103/3/2 120/3/2
f 119/4/2 102/4/2 120/4/2
f 103/4/2 104/4/2 121/4/2
f 120/3/2 103/3/2 121/3/2
f 104/3/2 105/3/2 122/3/2
f 121/4/2 104/4/2 122/4/2
f 105/4/2 106/4/2 123/4/2
f 122/3/2 105/3/2 123/3/2
f 106/3/2 107/3/2 124/3/2
f 123/4/2 106/4/2 124/4/2
f 107/4/2 108/4/2 125/4/2
f 124/3/2 107/3/2 125/3/2
f 108/3/2 109/3/2 126/3/2
f 125/4/2 108/4/2 126/4/2
f 109/4/2 110/4/2 127/4/2
f 126/3/2 109/3/2 127/3/2
f 110/3/2 111/3/2 128/3/2
f 127/4/2 110/4/2 128/4/2
f 111/4/2 112/4/2 129/4/2
f 128/3/2 111/3/2 129/3/2
f 112/3/2 113/3/2 130/3/2
f 129/4/2 112/4/2 130/4/2
f 113/4/2 114/4/2 131/4/2
f 130/3/2 113/3/2 131/3/2
f 114/3/2 115/3/2 132/3/2
f 131/4/2 114/4/2 132/4/2
f 115/4/2 116/4/2 133/4/2
f 132/3/2 115/3/2 133/3/2
f 116/3/2 117/3/2 134/3/2
f 133/4/2 116/4/2 134/4/2
f 117/4/2 118/4/2 135/4/2
f 134/3/2 117/3/2 135/3/2
f 135/4/2 118/4/2 136/4/2
f 137/2/2 138/2/2 139/2/2
f 139/2/2 138/2/2 140/2/2
f 137/2/2 139/2/2 141/2/2
f 140/2/2 138/2/2 142/2/2
f 137/2/2 141/2/2 143/2/2
f 141/2/2 142/2/2 143/2/2
f 142/2/2 138/2/2 144/2/2
f 143/2/2 142/2/2 144/2/2
f 147/2/3 146/2/3 145/2/3
f 148/2/3 146/2/3 147/2/3
f 149/2/3 147/2/3 145/2/3
f 150/2/3 146/2/3 148/2/3
f 151/2/3 149/2/3 145/2/3
f 151/2/3 150/2/3 149/2/3
f 152/2/3 146/2/3 150/2/3
f 152/2/3 150/2/3 151/2/3
f 155/4/3 154/4/3 153/4/3
f 156/4/3 154/4/3 155/4/3
f 157/3/3 156/3/3 155/3/3
f 158/3/3 156/3/3 157/3/3
f 159/4/3 158/4/3 157/4/3
f 160/4/3 158/4/3 159/4/3
f 161/3/3 160/3/3 159/3/3
f 162/3/3 160/3/3 161/3/3
f 163/4/3 162/4/3 161/4/3
f 164/4/3 162/4/3 163/4/3
f 165/3/3 164/3/3 163/3/3
f 166/3/3 164/3/3 165/3/3
f 167/4/3 166/4/3 165/4/3
f 168/4/3 166/4/3 167/4/3
f 169/3/3 168/3/3 167/3/3
f 170/3/3 168/3/3 169/3/3
f 171/4/3 170/4/3 169/4/3
f 172/4/3 170/4/3 171/4/3
f 173/3/3 172/3/3 171/3/3
f 174/3/3 172/3/3 173/3/3
f 175/4/3 174/4/3 173/4/3
f 176/4/3 174/4/3 175/4/3
f 177/3/3 176/3/3 175/3/3
f 178/3/3 176/3/3 177/3/3
f 179/4/3 178/4/3 177/4/3
f 180/4/3 178/4/3 179/4/3
f 181/3/3 180/3/3 179/3/3
f 182/3/3 180/3/3 181/3/3
f 183/4/3 182/4/3 181/4/3
f 184/4/3 182/4/3 183/4/3
f 185/3/3 184/3/3 183/3/3
f 186/3/3 184/3/3 185/3/3
f 187/4/3 186/4/3 185/4/3
f 188/4/3 186/4/3 187/4/3
f 191/2/3 190/2/3 189/2/3
f 192/2/3 190/2/3 191/2/3
f 195/2/3 194/2/3 193/2/3
f 196/2/3 194/2/3 195/2/3
f 199/2/3 198/2/3 197/2/3
f 200/2/3 198/2/3 199/2/3
f 201/2/4 202/2/4 203/2/4
f 203/2/4 202/2/4 204/2/4
f 205/2/4 206/2/4 207/2/4
f 207/2/4 206/2/4 208/2/4
f 209/2/4 210/2/4 211/2/4
f 211/2/4 210/2/4 212/2/4
f 213/4/4 214/4/4 215/4/4
f 215/4/4 214/4/4 216/4/4
f 215/3/4 216/3/4 217/3/4
f 217/3/4 216/3/4 218/3/4
f 217/4/4 218/4/4 219/4/4
f 219/4/4 218/4/4 220/4/4
f 219/3/4 220/3/4 221/3/4
f 221/3/4 220/3/4 222/3/4
f 221/4/4 222/4/4 223/4/4
f 223/4/4 222/4/4 224/4/4
f 223/3/4 224/3/4 225/3/4
f 225/3/4 224/3/4 226/3/4
f 225/4/4 226/4/4 227/4/4
f 227/4/4 226/4/4 228/4/4
f 227/3/4 228/3/4 229/3/4
f 229/3/4 228/3/4 230/3/4
f 229/4/4 230/4/4 231/4/4
f 231/4/4 230/4/4 232/4/4
f 231/3/4 232/3/4 233/3/4
f 233/3/4 232/3/4 234/3/4
f 233/4/4 234/4/4 235/4/4
f 235/4/4 234/4/4 236/4/4
f 235/3/4 236/3/4 237/3/4
f 237/3/4 236/3/4 238/3/4
f 237/4/4 238/4/4 239/4/4
f 239/4/4 238/4/4 240/4/4
f 239/3/4 240/3/4 241/3/4
f 241/3/4 240/3/4 242/3/4
f 241/4/4 242/4/4 243/4/4
f 243/4/4 242/4/4 244/4/4
f 243/3/4 244/3/4 245/3/4
f 245/3/4 244/3/4 246/3/4
f 245/4/4 246/4/4 247/4/4
f 247/4/4 246/4/4 248/4/4
f 249/2/4 250/2/4 251/2/4
f 251/2/4 250/2/4 252/2/4
f 249/2/4 251/2/4 253/2/4
f 252/2/4 250/2/4 254/2/4
f 249/2/4 253/2/4 255/2/4
f 253/2/4 254/2/4 255/2/4
f 254/2/4 250/2/4 256/2/4
f 255/2/4 254/2/4 256/2/4
f 259/2/5 258/2/5 257/2/5
f 260/2/5 258/2/5 259/2/5
f 263/2/5 262/2/5 261/2/5
f 264/2/5 262/2/5 263/2/5
f 265/2/5 262/2/5 264/2/5
f 266/2/5 262/2/5 265/2/5
f 267/2/5 262/2/5 266/2/5
f 268/2/5 262/2/5 267/2/5
f 269/2/5 262/2/5 268/2/5
f 270/2/5 262/2/5 269/2/5
f 271/2/5 262/2/5 270/2/5
f 272/2/5 262/2/5 271/2/5
f 273/2/5 262/2/5 272/2/5
f 274/2/5 262/2/5 273/2/5
f 275/2/5 262/2/5 274/2/5
f 276/2/5 262/2/5 275/2/5
f 277/2/5 262/2/5 276/2/5
f 278/2/5 262/2/5 277/2/5
f 279/2/5 262/2/5 278/2/5
f 280/2/5 262/2/5 279/2/5
f 285/2/5 282/2/5 281/2/5
f 286/2/5 284/2/5 283/2/5
f 287/2/5 285/2/5 281/2/5
f 288/2/5 284/2/5 286/2/5
f 289/2/5 287/2/5 281/2/5
f 290/2/5 284/2/5 288/2/5
f 291/2/5 289/2/5 281/2/5
f 292/2/5 284/2/5 290/2/5
f 293/2/5 291/2/5 281/2/5
f 294/2/5 284/2/5 292/2/5
f 295/2/5 293/2/5 281/2/5
f 296/2/5 284/2/5 294/2/5
f 297/2/5 295/2/5 281/2/5
f 298/2/5 284/2/5 296/2/5
f 299/2/5 297/2/5 281/2/5
f 300/2/5 284/2/5 298/2/5
f 301/2/5 299/2/5 281/2/5
f 302/2/5 284/2/5 300/2/5
f 303/2/5 301/2/5 281/2/5
f 304/2/5 284/2/5 302/2/5
f 305/2/5 303/2/5 281/2/5
f 306/2/5 284/2/5 304/2/5
f 307/2/5 305/2/5 281/2/5
f 308/2/5 284/2/5 306/2/5
f 309/2/5 307/2/5 281/2/5
f 310/2/5 284/2/5 308/2/5
f 311/2/5 309/2/5 281/2/5
f 312/2/5 284/2/5 310/2/5
f 313/2/5 311/2/5 281/2/5
f 314/2/5 284/2/5 312/2/5
f 315/2/5 313/2/5 281/2/5
f 316/2/5 284/2/5 314/2/5
f 317/2/5 315/2/5 281/2/5
f 318/2/5 315/2/5 317/2/5
f 319/2/5 284/2/5 316/2/5
f 320/2/5 284/2/5 319/2/5
f 339/2/5 322/2/5 321/2/5
f 339/2/5 338/2/5 337/2/5
f 339/2/5 337/2/5 336/2/5
f 339/2/5 336/2/5 335/2/5
f 339/2/5 335/2/5 334/2/5
f 339/2/5 334/2/5 333/2/5
f 339/2/5 333/2/5 332/2/5
f 339/2/5 332/2/5 331/2/5
f 339/2/5 331/2/5 330/2/5
f 339/2/5 330/2/5 329/2/5
f 339/2/5 329/2/5 328/2/5
f 339/2/5 328/2/5 327/2/5
f 339/2/5 327/2/5 326/2/5
f 339/2/5 326/2/5 325/2/5
f 339/2/5 325/2/5 324/2/5
f 339/2/5 324/2/5 323/2/5
f 339/2/5 323/2/5 322/2/5
f 340/2/5 338/2/5 339/2/5
f 341/2/6 342/2/6 343/2/6
f 343/2/6 342/2/6 344/2/6
f 344/2/6 342/2/6 345/2/6
f 345/2/6 342/2/6 346/2/6
f 346/2/6 342/2/6 347/2/6
f 347/2/6 342/2/6 348/2/6
f 348/2/6 342/2/6 349/2/6
f 349/2/6 342/2/6 350/2/6
f 350/2/6 342/2/6 351/2/6
f 351/2/6 342/2/6 352/2/6
f 352/2/6 342/2/6 353/2/6
f 353/2/6 342/2/6 354/2/6
f 354/2/6 342/2/6 355/2/6
f 355/2/6 342/2/6 356/2/6
f 356/2/6 342/2/6 357/2/6
f 357/2/6 342/2/6 358/2/6
f 358/2/6 342/2/6 359/2/6
f 359/2/6 342/2/6 360/2/6
f 361/2/6 362/2/6 365/2/6
f 363/2/6 364/2/6 366/2/6
f 361/2/6 365/2/6 367/2/6
f 366/2/6 364/2/6 368/2/6
f 361/2/6 367/2/6 369/2/6
f 368/2/6 364/2/6 370/2/6
f 361/2/6 369/2/6 371/2/6
f 370/2/6 364/2/6 372/2/6
f 361/2/6 371/2/6 373/2/6
f 372/2/6 364/2/6 374/2/6
f 361/2/6 373/2/6 375/2/6
f 374/2/6 364/2/6 376/2/6
f 361/2/6 375/2/6 377/2/6
f 376/2/6 364/2/6 378/2/6
f 361/2/6 377/2/6 379/2/6
f 378/2/6 364/2/6 380/2/6
f 361/2/6 379/2/6 381/2/6
f 380/2/6 364/2/6 382/2/6
f 361/2/6 381/2/6 383/2/6
f 382/2/6 364/2/6 384/2/6
f 361/2/6 383/2/6 385/2/6
f 384/2/6 364/2/6 386/2/6
f 361/2/6 385/2/6 387/2/6
f 386/2/6 364/2/6 388/2/6
f 361/2/6 387/2/6 389/2/6
f 388/2/6 364/2/6 390/2/6
f 361/2/6 389/2/6 391/2/6
f 390/2/6 364/2/6 392/2/6
f 361/2/6 391/2/6 393/2/6
f 392/2/6 364/2/6 394/2/6
f 361/2/6 393/2/6 395/2/6
f 394/2/6 364/2/6 396/2/6
f 361/2/6 395/2/6 397/2/6
f 397/2/6 395/2/6 398/2/6
f 396/2/6 364/2/6 399/2/6
f 399/2/6 364/2/6 400/2/6
f 401/2/6 402/2/6 419/2/6
f 417/2/6 418/2/6 419/2/6
f 416/2/6 417/2/6 419/2/6
f 415/2/6 416/2/6 419/2/6
f 414/2/6 415/2/6 419/2/6
f 413/2/6 414/2/6 419/2/6
f 412/2/6 413/2/6 419/2/6
f 411/2/6 412/2/6 419/2/6
f 410/2/6 411/2/6 419/2/6
f 409/2/6 410/2/6 419/2/6
f 408/2/6 409/2/6 419/2/6
f 407/2/6 408/2/6 419/2/6
f 406/2/6 407/2/6 419/2/6
f 405/2/6 406/2/6 419/2/6
f 404/2/6 405/2/6 419/2/6
f 403/2/6 404/2/6 419/2/6
f 402/2/6 403/2/6 419/2/6
f 419/2/6 418/2/6 420/2/6
f 421/4/6 422/4/6 423/4/6
f 423/4/6 422/4/6 424/4/6
f 423/3/6 424/3/6 425/3/6
f 425/3/6 424/3/6 426/3/6
f 425/4/6 426/4/6 427/4/6
f 427/4/6 426/4/6 428/4/6
f 427/3/6 428/3/6 429/3/6
f 429/3/6 428/3/6 430/3/6
f 429/4/6 430/4/6 431/4/6
f 431/4/6 430/4/6 432/4/6
f 431/3/6 432/3/6 433/3/6
f 433/3/6 432/3/6 434/3/6
f 433/4/6 434/4/6 435/4/6
f 435/4/6 434/4/6 436/4/6
f 435/3/6 436/3/6 437/3/6
f 437/3/6 436/3/6 438/3/6
f 437/4/6 438/4/6 439/4/6
f 439/4/6 438/4/6 440/4/6
f 439/3/6 440/3/6 441/3/6
f 441/3/6 440/3/6 442/3/6
f 441/4/6 442/4/6 443/4/6
f 443/4/6 442/4/6 444/4/6
f 443/3/6 444/3/6 445/3/6
f 445/3/6 444/3/6 446/3/6
f 445/4/6 446/4/6 447/4/6
f 447/4/6 446/4/6 448/4/6
f 447/3/6 448/3/6 449/3/6
f 449/3/6 448/3/6 450/3/6
f 449/4/6 450/4/6 451/4/6
f 451/4/6 450/4/6 452/4/6
f 451/3/6 452/3/6 453/3/6
f 453/3/6 452/3/6 454/3/6
f 453/4/6 454/4/6 455/4/6
f 455/4/6 454/4/6 456/4/6
f 457/2/6 458/2/6 459/2/6
f 459/2/6 458/2/6 460/2/6
f 457/2/6 459/2/6 461/2/6
f 460/2/6 458/2/6 462/2/6
f 457/2/6 461/2/6 463/2/6
f 461/2/6 462/2/6 463/2/6
f 462/2/6 458/2/6 464/2/6
f 463/2/6 462/2/6 464/2/6
