# MagicaVoxel @ Ephtracy

# group
o 

# material
mtllib MedicalBed.mtl
usemtl palette

# normals
vn -1 0 0
vn 1 0 0
vn 0 0 1
vn 0 0 -1
vn 0 -1 0
vn 0 1 0

# texcoords
vt 0.201172 0.5
vt 0.373047 0.5
vt 0.857422 0.5
vt 0.958984 0.5
vt 0.962891 0.5
vt 0.990234 0.5

# verts
v -1.5 0.1 3.2
v -1.5 0.1 3.1
v -1.5 0.1 -3
v -1.5 0.1 -3.1
v -1.5 0.2 3.2
v -1.5 0.2 3.1
v -1.5 0.2 -3
v -1.5 0.2 -3.1
v -1.5 0.5 3.3
v -1.5 0.5 -3.3
v -1.5 0.7 3.2
v -1.5 0.7 -3.1
v -1.5 1 3.2
v -1.5 1 -3.1
v -1.5 1.2 3.3
v -1.5 1.2 3.2
v -1.5 1.7 -3.1
v -1.5 1.7 -3.3
v -1.4 0 3.3
v -1.4 0 3
v -1.4 0 -2.9
v -1.4 0 -3.2
v -1.4 0.1 3.2
v -1.4 0.1 3.1
v -1.4 0.1 -3
v -1.4 0.1 -3.1
v -1.4 0.2 3.3
v -1.4 0.2 3.2
v -1.4 0.2 3.1
v -1.4 0.2 3
v -1.4 0.2 -2.9
v -1.4 0.2 -3
v -1.4 0.2 -3.1
v -1.4 0.2 -3.2
v -1.4 0.5 3.2
v -1.4 0.5 3.1
v -1.4 0.5 -3
v -1.4 0.5 -3.1
v -1.4 1.2 3.3
v -1.4 1.2 3.2
v -1.4 1.3 3.3
v -1.4 1.3 3.2
v -1.3 1.7 -3.1
v -1.3 1.7 -3.3
v -1.3 1.8 -3.1
v -1.3 1.8 -3.3
v -0.9 1 -2.7
v -0.9 1 -3.1
v -0.9 1.1 -2.7
v -0.9 1.1 -2.8
v -0.9 1.6 -2.8
v -0.9 1.6 -2.9
v -0.9 1.7 -2.9
v -0.9 1.7 -3.1
v -0.5 1.6 -2.9
v -0.5 1.6 -3
v -0.5 1.7 -2.9
v -0.5 1.7 -3
v -0.4 1 -2.7
v -0.4 1 -2.8
v -0.4 1.1 -2.7
v -0.4 1.1 -2.8
v 0.6 1.6 -2.9
v 0.6 1.6 -3
v 0.6 1.7 -2.9
v 0.6 1.7 -3
v 0.7 1 -2.7
v 0.7 1 -2.8
v 0.7 1.1 -2.7
v 0.7 1.1 -2.8
v 1.2 0.1 3.2
v 1.2 0.1 3.1
v 1.2 0.1 -3
v 1.2 0.1 -3.1
v 1.2 0.2 3.2
v 1.2 0.2 3.1
v 1.2 0.2 -3
v 1.2 0.2 -3.1
v 1.3 0 3.3
v 1.3 0 3
v 1.3 0 -2.9
v 1.3 0 -3.2
v 1.3 0.1 3.2
v 1.3 0.1 3.1
v 1.3 0.1 -3
v 1.3 0.1 -3.1
v 1.3 0.2 3.3
v 1.3 0.2 3.2
v 1.3 0.2 3.1
v 1.3 0.2 3
v 1.3 0.2 -2.9
v 1.3 0.2 -3
v 1.3 0.2 -3.1
v 1.3 0.2 -3.2
v 1.3 0.5 3.2
v 1.3 0.5 3.1
v 1.3 0.5 -3
v 1.3 0.5 -3.1
v -1.3 0 3.3
v -1.3 0 3
v -1.3 0 -2.9
v -1.3 0 -3.2
v -1.3 0.1 3.2
v -1.3 0.1 3.1
v -1.3 0.1 -3
v -1.3 0.1 -3.1
v -1.3 0.2 3.3
v -1.3 0.2 3.2
v -1.3 0.2 3.1
v -1.3 0.2 3
v -1.3 0.2 -2.9
v -1.3 0.2 -3
v -1.3 0.2 -3.1
v -1.3 0.2 -3.2
v -1.3 0.5 3.2
v -1.3 0.5 3.1
v -1.3 0.5 -3
v -1.3 0.5 -3.1
v -1.2 0.1 3.2
v -1.2 0.1 3.1
v -1.2 0.1 -3
v -1.2 0.1 -3.1
v -1.2 0.2 3.2
v -1.2 0.2 3.1
v -1.2 0.2 -3
v -1.2 0.2 -3.1
v -0.7 1 -2.7
v -0.7 1 -2.8
v -0.7 1.1 -2.7
v -0.7 1.1 -2.8
v -0.6 1.6 -2.9
v -0.6 1.6 -3
v -0.6 1.7 -2.9
v -0.6 1.7 -3
v 0.4 1 -2.7
v 0.4 1 -2.8
v 0.4 1.1 -2.7
v 0.4 1.1 -2.8
v 0.5 1.6 -2.9
v 0.5 1.6 -3
v 0.5 1.7 -2.9
v 0.5 1.7 -3
v 0.9 1 -2.7
v 0.9 1 -3.1
v 0.9 1.1 -2.7
v 0.9 1.1 -2.8
v 0.9 1.6 -2.8
v 0.9 1.6 -2.9
v 0.9 1.7 -2.9
v 0.9 1.7 -3.1
v 1.3 1.7 -3.1
v 1.3 1.7 -3.3
v 1.3 1.8 -3.1
v 1.3 1.8 -3.3
v 1.4 0 3.3
v 1.4 0 3
v 1.4 0 -2.9
v 1.4 0 -3.2
v 1.4 0.1 3.2
v 1.4 0.1 3.1
v 1.4 0.1 -3
v 1.4 0.1 -3.1
v 1.4 0.2 3.3
v 1.4 0.2 3.2
v 1.4 0.2 3.1
v 1.4 0.2 3
v 1.4 0.2 -2.9
v 1.4 0.2 -3
v 1.4 0.2 -3.1
v 1.4 0.2 -3.2
v 1.4 0.5 3.2
v 1.4 0.5 3.1
v 1.4 0.5 -3
v 1.4 0.5 -3.1
v 1.4 1.2 3.3
v 1.4 1.2 3.2
v 1.4 1.3 3.3
v 1.4 1.3 3.2
v 1.5 0.1 3.2
v 1.5 0.1 3.1
v 1.5 0.1 -3
v 1.5 0.1 -3.1
v 1.5 0.2 3.2
v 1.5 0.2 3.1
v 1.5 0.2 -3
v 1.5 0.2 -3.1
v 1.5 0.5 3.3
v 1.5 0.5 -3.3
v 1.5 0.7 3.2
v 1.5 0.7 -3.1
v 1.5 1 3.2
v 1.5 1 -3.1
v 1.5 1.2 3.3
v 1.5 1.2 3.2
v 1.5 1.7 -3.1
v 1.5 1.7 -3.3
v -1.5 0.5 3.3
v -1.5 1.2 3.3
v -1.4 0 3.3
v -1.4 0.2 3.3
v -1.4 1.2 3.3
v -1.4 1.3 3.3
v -1.3 0 3.3
v -1.3 0.2 3.3
v 1.3 0 3.3
v 1.3 0.2 3.3
v 1.4 0 3.3
v 1.4 0.2 3.3
v 1.4 1.2 3.3
v 1.4 1.3 3.3
v 1.5 0.5 3.3
v 1.5 1.2 3.3
v -1.5 0.1 3.2
v -1.5 0.2 3.2
v -1.4 0.1 3.2
v -1.4 0.2 3.2
v -1.4 0.5 3.2
v -1.3 0.1 3.2
v -1.3 0.2 3.2
v -1.3 0.5 3.2
v -1.2 0.1 3.2
v -1.2 0.2 3.2
v 1.2 0.1 3.2
v 1.2 0.2 3.2
v 1.3 0.1 3.2
v 1.3 0.2 3.2
v 1.3 0.5 3.2
v 1.4 0.1 3.2
v 1.4 0.2 3.2
v 1.4 0.5 3.2
v 1.5 0.1 3.2
v 1.5 0.2 3.2
v -0.9 1 -2.7
v -0.9 1.1 -2.7
v -0.7 1 -2.7
v -0.7 1.1 -2.7
v -0.4 1 -2.7
v -0.4 1.1 -2.7
v 0.4 1 -2.7
v 0.4 1.1 -2.7
v 0.7 1 -2.7
v 0.7 1.1 -2.7
v 0.9 1 -2.7
v 0.9 1.1 -2.7
v -0.9 1.1 -2.8
v -0.9 1.6 -2.8
v -0.7 1 -2.8
v -0.7 1.1 -2.8
v -0.4 1 -2.8
v -0.4 1.1 -2.8
v 0.4 1 -2.8
v 0.4 1.1 -2.8
v 0.7 1 -2.8
v 0.7 1.1 -2.8
v 0.9 1.1 -2.8
v 0.9 1.6 -2.8
v -1.4 0 -2.9
v -1.4 0.2 -2.9
v -1.3 0 -2.9
v -1.3 0.2 -2.9
v -0.9 1.6 -2.9
v -0.9 1.7 -2.9
v -0.6 1.6 -2.9
v -0.6 1.7 -2.9
v -0.5 1.6 -2.9
v -0.5 1.7 -2.9
v 0.5 1.6 -2.9
v 0.5 1.7 -2.9
v 0.6 1.6 -2.9
v 0.6 1.7 -2.9
v 0.9 1.6 -2.9
v 0.9 1.7 -2.9
v 1.3 0 -2.9
v 1.3 0.2 -2.9
v 1.4 0 -2.9
v 1.4 0.2 -2.9
v -1.5 0.1 -3
v -1.5 0.2 -3
v -1.4 0.1 -3
v -1.4 0.2 -3
v -1.4 0.5 -3
v -1.3 0.1 -3
v -1.3 0.2 -3
v -1.3 0.5 -3
v -1.2 0.1 -3
v -1.2 0.2 -3
v -0.6 1.6 -3
v -0.6 1.7 -3
v -0.5 1.6 -3
v -0.5 1.7 -3
v 0.5 1.6 -3
v 0.5 1.7 -3
v 0.6 1.6 -3
v 0.6 1.7 -3
v 1.2 0.1 -3
v 1.2 0.2 -3
v 1.3 0.1 -3
v 1.3 0.2 -3
v 1.3 0.5 -3
v 1.4 0.1 -3
v 1.4 0.2 -3
v 1.4 0.5 -3
v 1.5 0.1 -3
v 1.5 0.2 -3
v -1.5 1 -3.1
v -1.5 1.7 -3.1
v -1.3 1.7 -3.1
v -1.3 1.8 -3.1
v -0.9 1 -3.1
v -0.9 1.7 -3.1
v 0.9 1 -3.1
v 0.9 1.7 -3.1
v 1.3 1.7 -3.1
v 1.3 1.8 -3.1
v 1.5 1 -3.1
v 1.5 1.7 -3.1
v -1.5 1 3.2
v -1.5 1.2 3.2
v -1.4 1.2 3.2
v -1.4 1.3 3.2
v 1.4 1.2 3.2
v 1.4 1.3 3.2
v 1.5 1 3.2
v 1.5 1.2 3.2
v -1.5 0.1 3.1
v -1.5 0.2 3.1
v -1.4 0.1 3.1
v -1.4 0.2 3.1
v -1.4 0.5 3.1
v -1.3 0.1 3.1
v -1.3 0.2 3.1
v -1.3 0.5 3.1
v -1.2 0.1 3.1
v -1.2 0.2 3.1
v 1.2 0.1 3.1
v 1.2 0.2 3.1
v 1.3 0.1 3.1
v 1.3 0.2 3.1
v 1.3 0.5 3.1
v 1.4 0.1 3.1
v 1.4 0.2 3.1
v 1.4 0.5 3.1
v 1.5 0.1 3.1
v 1.5 0.2 3.1
v -1.4 0 3
v -1.4 0.2 3
v -1.3 0 3
v -1.3 0.2 3
v 1.3 0 3
v 1.3 0.2 3
v 1.4 0 3
v 1.4 0.2 3
v -1.5 0.1 -3.1
v -1.5 0.2 -3.1
v -1.4 0.1 -3.1
v -1.4 0.2 -3.1
v -1.4 0.5 -3.1
v -1.3 0.1 -3.1
v -1.3 0.2 -3.1
v -1.3 0.5 -3.1
v -1.2 0.1 -3.1
v -1.2 0.2 -3.1
v 1.2 0.1 -3.1
v 1.2 0.2 -3.1
v 1.3 0.1 -3.1
v 1.3 0.2 -3.1
v 1.3 0.5 -3.1
v 1.4 0.1 -3.1
v 1.4 0.2 -3.1
v 1.4 0.5 -3.1
v 1.5 0.1 -3.1
v 1.5 0.2 -3.1
v -1.4 0 -3.2
v -1.4 0.2 -3.2
v -1.3 0 -3.2
v -1.3 0.2 -3.2
v 1.3 0 -3.2
v 1.3 0.2 -3.2
v 1.4 0 -3.2
v 1.4 0.2 -3.2
v -1.5 0.5 -3.3
v -1.5 1.7 -3.3
v -1.3 1.7 -3.3
v -1.3 1.8 -3.3
v 1.3 1.7 -3.3
v 1.3 1.8 -3.3
v 1.5 0.5 -3.3
v 1.5 1.7 -3.3
v -1.4 0 3.3
v -1.3 0 3.3
v 1.3 0 3.3
v 1.4 0 3.3
v -1.4 0 3
v -1.3 0 3
v 1.3 0 3
v 1.4 0 3
v -1.4 0 -2.9
v -1.3 0 -2.9
v 1.3 0 -2.9
v 1.4 0 -2.9
v -1.4 0 -3.2
v -1.3 0 -3.2
v 1.3 0 -3.2
v 1.4 0 -3.2
v -1.5 0.1 3.2
v -1.4 0.1 3.2
v -1.3 0.1 3.2
v -1.2 0.1 3.2
v 1.2 0.1 3.2
v 1.3 0.1 3.2
v 1.4 0.1 3.2
v 1.5 0.1 3.2
v -1.5 0.1 3.1
v -1.4 0.1 3.1
v -1.3 0.1 3.1
v -1.2 0.1 3.1
v 1.2 0.1 3.1
v 1.3 0.1 3.1
v 1.4 0.1 3.1
v 1.5 0.1 3.1
v -1.5 0.1 -3
v -1.4 0.1 -3
v -1.3 0.1 -3
v -1.2 0.1 -3
v 1.2 0.1 -3
v 1.3 0.1 -3
v 1.4 0.1 -3
v 1.5 0.1 -3
v -1.5 0.1 -3.1
v -1.4 0.1 -3.1
v -1.3 0.1 -3.1
v -1.2 0.1 -3.1
v 1.2 0.1 -3.1
v 1.3 0.1 -3.1
v 1.4 0.1 -3.1
v 1.5 0.1 -3.1
v -1.5 0.5 3.3
v 1.5 0.5 3.3
v -1.4 0.5 3.2
v -1.3 0.5 3.2
v 1.3 0.5 3.2
v 1.4 0.5 3.2
v -1.4 0.5 3.1
v -1.3 0.5 3.1
v 1.3 0.5 3.1
v 1.4 0.5 3.1
v -1.4 0.5 -3
v -1.3 0.5 -3
v 1.3 0.5 -3
v 1.4 0.5 -3
v -1.4 0.5 -3.1
v -1.3 0.5 -3.1
v 1.3 0.5 -3.1
v 1.4 0.5 -3.1
v -1.5 0.5 -3.3
v 1.5 0.5 -3.3
v -1.4 0.2 3.3
v -1.3 0.2 3.3
v 1.3 0.2 3.3
v 1.4 0.2 3.3
v -1.5 0.2 3.2
v -1.4 0.2 3.2
v -1.3 0.2 3.2
v -1.2 0.2 3.2
v 1.2 0.2 3.2
v 1.3 0.2 3.2
v 1.4 0.2 3.2
v 1.5 0.2 3.2
v -1.5 0.2 3.1
v -1.4 0.2 3.1
v -1.3 0.2 3.1
v -1.2 0.2 3.1
v 1.2 0.2 3.1
v 1.3 0.2 3.1
v 1.4 0.2 3.1
v 1.5 0.2 3.1
v -1.4 0.2 3
v -1.3 0.2 3
v 1.3 0.2 3
v 1.4 0.2 3
v -1.4 0.2 -2.9
v -1.3 0.2 -2.9
v 1.3 0.2 -2.9
v 1.4 0.2 -2.9
v -1.5 0.2 -3
v -1.4 0.2 -3
v -1.3 0.2 -3
v -1.2 0.2 -3
v 1.2 0.2 -3
v 1.3 0.2 -3
v 1.4 0.2 -3
v 1.5 0.2 -3
v -1.5 0.2 -3.1
v -1.4 0.2 -3.1
v -1.3 0.2 -3.1
v -1.2 0.2 -3.1
v 1.2 0.2 -3.1
v 1.3 0.2 -3.1
v 1.4 0.2 -3.1
v 1.5 0.2 -3.1
v -1.4 0.2 -3.2
v -1.3 0.2 -3.2
v 1.3 0.2 -3.2
v 1.4 0.2 -3.2
v -1.5 1 3.2
v 1.5 1 3.2
v -0.9 1 -2.7
v -0.7 1 -2.7
v -0.4 1 -2.7
v 0.4 1 -2.7
v 0.7 1 -2.7
v 0.9 1 -2.7
v -0.7 1 -2.8
v -0.4 1 -2.8
v 0.4 1 -2.8
v 0.7 1 -2.8
v -1.5 1 -3.1
v -0.9 1 -3.1
v 0.9 1 -3.1
v 1.5 1 -3.1
v -0.9 1.1 -2.7
v -0.7 1.1 -2.7
v -0.4 1.1 -2.7
v 0.4 1.1 -2.7
v 0.7 1.1 -2.7
v 0.9 1.1 -2.7
v -0.9 1.1 -2.8
v -0.7 1.1 -2.8
v -0.4 1.1 -2.8
v 0.4 1.1 -2.8
v 0.7 1.1 -2.8
v 0.9 1.1 -2.8
v -1.5 1.2 3.3
v -1.4 1.2 3.3
v 1.4 1.2 3.3
v 1.5 1.2 3.3
v -1.5 1.2 3.2
v -1.4 1.2 3.2
v 1.4 1.2 3.2
v 1.5 1.2 3.2
v -1.4 1.3 3.3
v 1.4 1.3 3.3
v -1.4 1.3 3.2
v 1.4 1.3 3.2
v -0.9 1.6 -2.8
v 0.9 1.6 -2.8
v -0.9 1.6 -2.9
v -0.6 1.6 -2.9
v -0.5 1.6 -2.9
v 0.5 1.6 -2.9
v 0.6 1.6 -2.9
v 0.9 1.6 -2.9
v -0.6 1.6 -3
v -0.5 1.6 -3
v 0.5 1.6 -3
v 0.6 1.6 -3
v -0.9 1.7 -2.9
v -0.6 1.7 -2.9
v -0.5 1.7 -2.9
v 0.5 1.7 -2.9
v 0.6 1.7 -2.9
v 0.9 1.7 -2.9
v -0.6 1.7 -3
v -0.5 1.7 -3
v 0.5 1.7 -3
v 0.6 1.7 -3
v -1.5 1.7 -3.1
v -1.3 1.7 -3.1
v -0.9 1.7 -3.1
v 0.9 1.7 -3.1
v 1.3 1.7 -3.1
v 1.5 1.7 -3.1
v -1.5 1.7 -3.3
v -1.3 1.7 -3.3
v 1.3 1.7 -3.3
v 1.5 1.7 -3.3
v -1.3 1.8 -3.1
v 1.3 1.8 -3.1
v -1.3 1.8 -3.3
v 1.3 1.8 -3.3

# faces
f 5/6/1 2/6/1 1/6/1
f 6/6/1 2/6/1 5/6/1
f 7/6/1 4/6/1 3/6/1
f 8/6/1 4/6/1 7/6/1
f 11/2/1 10/2/1 9/2/1
f 12/2/1 10/2/1 11/2/1
f 13/2/1 11/2/1 9/2/1
f 13/4/1 12/4/1 11/4/1
f 14/2/1 10/2/1 12/2/1
f 14/4/1 12/4/1 13/4/1
f 15/2/1 13/2/1 9/2/1
f 16/2/1 13/2/1 15/2/1
f 17/2/1 10/2/1 14/2/1
f 18/2/1 10/2/1 17/2/1
f 23/6/1 20/6/1 19/6/1
f 24/6/1 20/6/1 23/6/1
f 25/6/1 22/6/1 21/6/1
f 26/6/1 22/6/1 25/6/1
f 27/6/1 23/6/1 19/6/1
f 28/6/1 23/6/1 27/6/1
f 29/6/1 20/6/1 24/6/1
f 30/6/1 20/6/1 29/6/1
f 31/6/1 25/6/1 21/6/1
f 32/6/1 25/6/1 31/6/1
f 33/6/1 22/6/1 26/6/1
f 34/6/1 22/6/1 33/6/1
f 35/6/1 29/6/1 28/6/1
f 36/6/1 29/6/1 35/6/1
f 37/6/1 33/6/1 32/6/1
f 38/6/1 33/6/1 37/6/1
f 41/2/1 40/2/1 39/2/1
f 42/2/1 40/2/1 41/2/1
f 45/2/1 44/2/1 43/2/1
f 46/2/1 44/2/1 45/2/1
f 49/5/1 48/5/1 47/5/1
f 50/5/1 48/5/1 49/5/1
f 51/5/1 48/5/1 50/5/1
f 52/5/1 48/5/1 51/5/1
f 53/5/1 48/5/1 52/5/1
f 54/5/1 48/5/1 53/5/1
f 57/5/1 56/5/1 55/5/1
f 58/5/1 56/5/1 57/5/1
f 61/5/1 60/5/1 59/5/1
f 62/5/1 60/5/1 61/5/1
f 65/5/1 64/5/1 63/5/1
f 66/5/1 64/5/1 65/5/1
f 69/5/1 68/5/1 67/5/1
f 70/5/1 68/5/1 69/5/1
f 75/6/1 72/6/1 71/6/1
f 76/6/1 72/6/1 75/6/1
f 77/6/1 74/6/1 73/6/1
f 78/6/1 74/6/1 77/6/1
f 83/6/1 80/6/1 79/6/1
f 84/6/1 80/6/1 83/6/1
f 85/6/1 82/6/1 81/6/1
f 86/6/1 82/6/1 85/6/1
f 87/6/1 83/6/1 79/6/1
f 88/6/1 83/6/1 87/6/1
f 89/6/1 80/6/1 84/6/1
f 90/6/1 80/6/1 89/6/1
f 91/6/1 85/6/1 81/6/1
f 92/6/1 85/6/1 91/6/1
f 93/6/1 82/6/1 86/6/1
f 94/6/1 82/6/1 93/6/1
f 95/6/1 89/6/1 88/6/1
f 96/6/1 89/6/1 95/6/1
f 97/6/1 93/6/1 92/6/1
f 98/6/1 93/6/1 97/6/1
f 99/6/2 100/6/2 103/6/2
f 103/6/2 100/6/2 104/6/2
f 101/6/2 102/6/2 105/6/2
f 105/6/2 102/6/2 106/6/2
f 99/6/2 103/6/2 107/6/2
f 107/6/2 103/6/2 108/6/2
f 104/6/2 100/6/2 109/6/2
f 109/6/2 100/6/2 110/6/2
f 101/6/2 105/6/2 111/6/2
f 111/6/2 105/6/2 112/6/2
f 106/6/2 102/6/2 113/6/2
f 113/6/2 102/6/2 114/6/2
f 108/6/2 109/6/2 115/6/2
f 115/6/2 109/6/2 116/6/2
f 112/6/2 113/6/2 117/6/2
f 117/6/2 113/6/2 118/6/2
f 119/6/2 120/6/2 123/6/2
f 123/6/2 120/6/2 124/6/2
f 121/6/2 122/6/2 125/6/2
f 125/6/2 122/6/2 126/6/2
f 127/5/2 128/5/2 129/5/2
f 129/5/2 128/5/2 130/5/2
f 131/5/2 132/5/2 133/5/2
f 133/5/2 132/5/2 134/5/2
f 135/5/2 136/5/2 137/5/2
f 137/5/2 136/5/2 138/5/2
f 139/5/2 140/5/2 141/5/2
f 141/5/2 140/5/2 142/5/2
f 143/5/2 144/5/2 145/5/2
f 145/5/2 144/5/2 146/5/2
f 146/5/2 144/5/2 147/5/2
f 147/5/2 144/5/2 148/5/2
f 148/5/2 144/5/2 149/5/2
f 149/5/2 144/5/2 150/5/2
f 151/2/2 152/2/2 153/2/2
f 153/2/2 152/2/2 154/2/2
f 155/6/2 156/6/2 159/6/2
f 159/6/2 156/6/2 160/6/2
f 157/6/2 158/6/2 161/6/2
f 161/6/2 158/6/2 162/6/2
f 155/6/2 159/6/2 163/6/2
f 163/6/2 159/6/2 164/6/2
f 160/6/2 156/6/2 165/6/2
f 165/6/2 156/6/2 166/6/2
f 157/6/2 161/6/2 167/6/2
f 167/6/2 161/6/2 168/6/2
f 162/6/2 158/6/2 169/6/2
f 169/6/2 158/6/2 170/6/2
f 164/6/2 165/6/2 171/6/2
f 171/6/2 165/6/2 172/6/2
f 168/6/2 169/6/2 173/6/2
f 173/6/2 169/6/2 174/6/2
f 175/2/2 176/2/2 177/2/2
f 177/2/2 176/2/2 178/2/2
f 179/6/2 180/6/2 183/6/2
f 183/6/2 180/6/2 184/6/2
f 181/6/2 182/6/2 185/6/2
f 185/6/2 182/6/2 186/6/2
f 187/2/2 188/2/2 189/2/2
f 189/2/2 188/2/2 190/2/2
f 187/2/2 189/2/2 191/2/2
f 189/4/2 190/4/2 191/4/2
f 190/2/2 188/2/2 192/2/2
f 191/4/2 190/4/2 192/4/2
f 187/2/2 191/2/2 193/2/2
f 193/2/2 191/2/2 194/2/2
f 192/2/2 188/2/2 195/2/2
f 195/2/2 188/2/2 196/2/2
f 201/2/3 198/2/3 197/2/3
f 203/6/3 200/6/3 199/6/3
f 204/6/3 200/6/3 203/6/3
f 207/6/3 206/6/3 205/6/3
f 208/6/3 206/6/3 207/6/3
f 209/2/3 202/2/3 201/2/3
f 209/2/3 201/2/3 197/2/3
f 210/2/3 202/2/3 209/2/3
f 211/2/3 209/2/3 197/2/3
f 212/2/3 209/2/3 211/2/3
f 215/6/3 214/6/3 213/6/3
f 216/6/3 214/6/3 215/6/3
f 219/6/3 217/6/3 216/6/3
f 220/6/3 217/6/3 219/6/3
f 221/6/3 219/6/3 218/6/3
f 222/6/3 219/6/3 221/6/3
f 225/6/3 224/6/3 223/6/3
f 226/6/3 224/6/3 225/6/3
f 229/6/3 227/6/3 226/6/3
f 230/6/3 227/6/3 229/6/3
f 231/6/3 229/6/3 228/6/3
f 232/6/3 229/6/3 231/6/3
f 235/5/3 234/5/3 233/5/3
f 236/5/3 234/5/3 235/5/3
f 239/5/3 238/5/3 237/5/3
f 240/5/3 238/5/3 239/5/3
f 243/5/3 242/5/3 241/5/3
f 244/5/3 242/5/3 243/5/3
f 248/5/3 246/5/3 245/5/3
f 249/5/3 248/5/3 247/5/3
f 250/5/3 246/5/3 248/5/3
f 250/5/3 248/5/3 249/5/3
f 252/5/3 246/5/3 250/5/3
f 253/5/3 252/5/3 251/5/3
f 254/5/3 246/5/3 252/5/3
f 254/5/3 252/5/3 253/5/3
f 255/5/3 246/5/3 254/5/3
f 256/5/3 246/5/3 255/5/3
f 259/6/3 258/6/3 257/6/3
f 260/6/3 258/6/3 259/6/3
f 263/5/3 262/5/3 261/5/3
f 264/5/3 262/5/3 263/5/3
f 267/5/3 266/5/3 265/5/3
f 268/5/3 266/5/3 267/5/3
f 271/5/3 270/5/3 269/5/3
f 272/5/3 270/5/3 271/5/3
f 275/6/3 274/6/3 273/6/3
f 276/6/3 274/6/3 275/6/3
f 279/6/3 278/6/3 277/6/3
f 280/6/3 278/6/3 279/6/3
f 283/6/3 281/6/3 280/6/3
f 284/6/3 281/6/3 283/6/3
f 285/6/3 283/6/3 282/6/3
f 286/6/3 283/6/3 285/6/3
f 289/5/3 288/5/3 287/5/3
f 290/5/3 288/5/3 289/5/3
f 293/5/3 292/5/3 291/5/3
f 294/5/3 292/5/3 293/5/3
f 297/6/3 296/6/3 295/6/3
f 298/6/3 296/6/3 297/6/3
f 301/6/3 299/6/3 298/6/3
f 302/6/3 299/6/3 301/6/3
f 303/6/3 301/6/3 300/6/3
f 304/6/3 301/6/3 303/6/3
f 307/2/3 306/2/3 305/2/3
f 309/2/3 307/2/3 305/2/3
f 309/2/3 308/2/3 307/2/3
f 310/2/3 308/2/3 309/2/3
f 312/2/3 308/2/3 310/2/3
f 313/2/3 308/2/3 312/2/3
f 313/2/3 312/2/3 311/2/3
f 314/2/3 308/2/3 313/2/3
f 315/2/3 313/2/3 311/2/3
f 316/2/3 313/2/3 315/2/3
f 317/2/4 318/2/4 319/2/4
f 317/2/4 319/2/4 321/2/4
f 319/2/4 320/2/4 321/2/4
f 321/2/4 320/2/4 322/2/4
f 317/2/4 321/2/4 323/2/4
f 323/2/4 321/2/4 324/2/4
f 325/6/4 326/6/4 327/6/4
f 327/6/4 326/6/4 328/6/4
f 328/6/4 329/6/4 331/6/4
f 331/6/4 329/6/4 332/6/4
f 330/6/4 331/6/4 333/6/4
f 333/6/4 331/6/4 334/6/4
f 335/6/4 336/6/4 337/6/4
f 337/6/4 336/6/4 338/6/4
f 338/6/4 339/6/4 341/6/4
f 341/6/4 339/6/4 342/6/4
f 340/6/4 341/6/4 343/6/4
f 343/6/4 341/6/4 344/6/4
f 345/6/4 346/6/4 347/6/4
f 347/6/4 346/6/4 348/6/4
f 349/6/4 350/6/4 351/6/4
f 351/6/4 350/6/4 352/6/4
f 353/6/4 354/6/4 355/6/4
f 355/6/4 354/6/4 356/6/4
f 356/6/4 357/6/4 359/6/4
f 359/6/4 357/6/4 360/6/4
f 358/6/4 359/6/4 361/6/4
f 361/6/4 359/6/4 362/6/4
f 363/6/4 364/6/4 365/6/4
f 365/6/4 364/6/4 366/6/4
f 366/6/4 367/6/4 369/6/4
f 369/6/4 367/6/4 370/6/4
f 368/6/4 369/6/4 371/6/4
f 371/6/4 369/6/4 372/6/4
f 373/6/4 374/6/4 375/6/4
f 375/6/4 374/6/4 376/6/4
f 377/6/4 378/6/4 379/6/4
f 379/6/4 378/6/4 380/6/4
f 381/2/4 382/2/4 383/2/4
f 381/2/4 383/2/4 385/2/4
f 383/2/4 384/2/4 385/2/4
f 385/2/4 384/2/4 386/2/4
f 381/2/4 385/2/4 387/2/4
f 387/2/4 385/2/4 388/2/4
f 393/6/5 390/6/5 389/6/5
f 394/6/5 390/6/5 393/6/5
f 395/6/5 392/6/5 391/6/5
f 396/6/5 392/6/5 395/6/5
f 401/6/5 398/6/5 397/6/5
f 402/6/5 398/6/5 401/6/5
f 403/6/5 400/6/5 399/6/5
f 404/6/5 400/6/5 403/6/5
f 413/6/5 406/6/5 405/6/5
f 414/6/5 406/6/5 413/6/5
f 415/6/5 408/6/5 407/6/5
f 416/6/5 408/6/5 415/6/5
f 417/6/5 410/6/5 409/6/5
f 418/6/5 410/6/5 417/6/5
f 419/6/5 412/6/5 411/6/5
f 420/6/5 412/6/5 419/6/5
f 429/6/5 422/6/5 421/6/5
f 430/6/5 422/6/5 429/6/5
f 431/6/5 424/6/5 423/6/5
f 432/6/5 424/6/5 431/6/5
f 433/6/5 426/6/5 425/6/5
f 434/6/5 426/6/5 433/6/5
f 435/6/5 428/6/5 427/6/5
f 436/6/5 428/6/5 435/6/5
f 439/2/5 438/2/5 437/2/5
f 440/2/5 438/2/5 439/2/5
f 441/2/5 438/2/5 440/2/5
f 442/2/5 438/2/5 441/2/5
f 443/2/5 439/2/5 437/2/5
f 444/2/5 441/2/5 440/2/5
f 445/2/5 441/2/5 444/2/5
f 446/2/5 438/2/5 442/2/5
f 447/2/5 445/2/5 444/2/5
f 447/2/5 446/2/5 445/2/5
f 447/2/5 443/2/5 437/2/5
f 447/2/5 444/2/5 443/2/5
f 448/2/5 446/2/5 447/2/5
f 449/2/5 446/2/5 448/2/5
f 450/2/5 438/2/5 446/2/5
f 450/2/5 446/2/5 449/2/5
f 451/2/5 447/2/5 437/2/5
f 452/2/5 449/2/5 448/2/5
f 453/2/5 449/2/5 452/2/5
f 454/2/5 438/2/5 450/2/5
f 455/2/5 451/2/5 437/2/5
f 455/2/5 454/2/5 453/2/5
f 455/2/5 453/2/5 452/2/5
f 455/2/5 452/2/5 451/2/5
f 456/2/5 438/2/5 454/2/5
f 456/2/5 454/2/5 455/2/5
f 457/6/6 458/6/6 462/6/6
f 462/6/6 458/6/6 463/6/6
f 459/6/6 460/6/6 466/6/6
f 466/6/6 460/6/6 467/6/6
f 461/6/6 462/6/6 469/6/6
f 469/6/6 462/6/6 470/6/6
f 463/6/6 464/6/6 471/6/6
f 471/6/6 464/6/6 472/6/6
f 465/6/6 466/6/6 473/6/6
f 473/6/6 466/6/6 474/6/6
f 467/6/6 468/6/6 475/6/6
f 475/6/6 468/6/6 476/6/6
f 470/6/6 471/6/6 477/6/6
f 477/6/6 471/6/6 478/6/6
f 474/6/6 475/6/6 479/6/6
f 479/6/6 475/6/6 480/6/6
f 481/6/6 482/6/6 486/6/6
f 486/6/6 482/6/6 487/6/6
f 483/6/6 484/6/6 490/6/6
f 490/6/6 484/6/6 491/6/6
f 485/6/6 486/6/6 493/6/6
f 493/6/6 486/6/6 494/6/6
f 487/6/6 488/6/6 495/6/6
f 495/6/6 488/6/6 496/6/6
f 489/6/6 490/6/6 497/6/6
f 497/6/6 490/6/6 498/6/6
f 491/6/6 492/6/6 499/6/6
f 499/6/6 492/6/6 500/6/6
f 494/6/6 495/6/6 501/6/6
f 501/6/6 495/6/6 502/6/6
f 498/6/6 499/6/6 503/6/6
f 503/6/6 499/6/6 504/6/6
f 505/4/6 506/4/6 507/4/6
f 507/4/6 506/4/6 508/4/6
f 508/4/6 506/4/6 509/4/6
f 509/4/6 506/4/6 510/4/6
f 510/4/6 506/4/6 511/4/6
f 511/4/6 506/4/6 512/4/6
f 508/4/6 509/4/6 513/4/6
f 513/4/6 509/4/6 514/4/6
f 510/4/6 511/4/6 515/4/6
f 515/4/6 511/4/6 516/4/6
f 505/4/6 507/4/6 517/4/6
f 517/4/6 507/4/6 518/4/6
f 512/4/6 506/4/6 519/4/6
f 519/4/6 506/4/6 520/4/6
f 521/5/6 522/5/6 527/5/6
f 527/5/6 522/5/6 528/5/6
f 523/5/6 524/5/6 529/5/6
f 529/5/6 524/5/6 530/5/6
f 525/5/6 526/5/6 531/5/6
f 531/5/6 526/5/6 532/5/6
f 533/2/6 534/2/6 537/2/6
f 537/2/6 534/2/6 538/2/6
f 535/2/6 536/2/6 539/2/6
f 539/2/6 536/2/6 540/2/6
f 541/2/6 542/2/6 543/2/6
f 543/2/6 542/2/6 544/2/6
f 545/5/6 546/5/6 547/5/6
f 547/5/6 546/5/6 548/5/6
f 548/5/6 546/5/6 549/5/6
f 549/5/6 546/5/6 550/5/6
f 550/5/6 546/5/6 551/5/6
f 551/5/6 546/5/6 552/5/6
f 548/5/6 549/5/6 553/5/6
f 553/5/6 549/5/6 554/5/6
f 550/5/6 551/5/6 555/5/6
f 555/5/6 551/5/6 556/5/6
f 557/5/6 558/5/6 563/5/6
f 559/5/6 560/5/6 564/5/6
f 564/5/6 560/5/6 565/5/6
f 561/5/6 562/5/6 566/5/6
f 564/5/6 565/5/6 569/5/6
f 557/5/6 563/5/6 569/5/6
f 565/5/6 566/5/6 569/5/6
f 563/5/6 564/5/6 569/5/6
f 566/5/6 562/5/6 570/5/6
f 569/5/6 566/5/6 570/5/6
f 567/2/6 568/2/6 573/2/6
f 573/2/6 568/2/6 574/2/6
f 571/2/6 572/2/6 575/2/6
f 575/2/6 572/2/6 576/2/6
f 577/2/6 578/2/6 579/2/6
f 579/2/6 578/2/6 580/2/6
