# MagicaVoxel @ Ephtracy

# group
o 

# material
mtllib Rug3.mtl
usemtl palette

# normals
vn -1 0 0
vn 1 0 0
vn 0 0 1
vn 0 0 -1
vn 0 -1 0
vn 0 1 0

# texcoords
vt 0.185547 0.5
vt 0.853516 0.5
vt 0.861328 0.5
vt 0.978516 0.5

# verts
v -4 0 3.7
v -4 0 -4.3
v -4 0.1 3.7
v -4 0.1 -4.3
v 4 0 3.7
v 4 0 -4.3
v 4 0.1 3.7
v 4 0.1 -4.3
v -4 0 3.7
v -4 0.1 3.7
v 4 0 3.7
v 4 0.1 3.7
v -4 0 -4.3
v -4 0.1 -4.3
v 4 0 -4.3
v 4 0.1 -4.3
v -4 0 3.7
v 4 0 3.7
v -3.8 0 3.5
v 3.8 0 3.5
v -2 0 2.5
v 2 0 2.5
v -2.1 0 2.4
v -2 0 2.4
v -0.4 0 2.4
v -0.3 0 2.4
v -0.2 0 2.4
v -0.0999999 0 2.4
v 0.1 0 2.4
v 0.2 0 2.4
v 0.3 0 2.4
v 0.4 0 2.4
v 2 0 2.4
v 2.1 0 2.4
v 1.5 0 2.2
v 1.7 0 2.2
v 1.4 0 2.1
v 1.5 0 2.1
v 1.7 0 2.1
v 1.8 0 2.1
v -1.5 0 1.8
v -1.4 0 1.8
v -1.1 0 1.8
v -1 0 1.8
v 1.4 0 1.8
v 1.8 0 1.8
v -1.4 0 1.6
v -1.1 0 1.6
v -1.6 0 1.4
v -1.5 0 1.4
v -1 0 1.4
v -0.9 0 1.4
v 1.1 0 1.4
v 1.3 0 1.4
v -1.7 0 1.3
v -1.6 0 1.3
v -0.9 0 1.3
v -0.8 0 1.3
v 1 0 1.3
v 1.1 0 1.3
v 1.3 0 1.3
v 1.4 0 1.3
v -1.7 0 1.2
v -1.6 0 1.2
v -0.9 0 1.2
v -0.8 0 1.2
v -1.6 0 1.1
v -1.5 0 1.1
v -1 0 1.1
v -0.9 0 1.1
v -1.5 0 1
v -1.4 0 1
v -1.1 0 1
v -1 0 1
v 1 0 1
v 1.4 0 1
v -1.4 0 0.9
v -1.3 0 0.9
v -1.2 0 0.9
v -1.1 0 0.9
v -1.3 0 0.8
v -1.2 0 0.8
v 0.6 0 0.7
v 0.8 0 0.7
v 0.5 0 0.6
v 0.6 0 0.6
v 0.8 0 0.6
v 0.9 0 0.6
v 0.5 0 0.3
v 0.9 0 0.3
v -2 0 0.0999999
v -0.4 0 0.0999999
v 0.4 0 0.0999999
v 2 0 0.0999999
v -2 0 0
v -0.3 0 0
v -0.2 0 0
v 0.2 0 0
v 0.3 0 0
v 2 0 0
v -2 0 -0.1
v -0.3 0 -0.1
v 0.3 0 -0.1
v 2 0 -0.1
v -2 0 -0.2
v -0.0999999 0 -0.2
v 0.1 0 -0.2
v 2 0 -0.2
v -2 0 -0.4
v -0.0999999 0 -0.4
v 0.1 0 -0.4
v 2 0 -0.4
v -2 0 -0.5
v -0.3 0 -0.5
v 0.3 0 -0.5
v 2 0 -0.5
v -2 0 -0.6
v -0.3 0 -0.6
v -0.2 0 -0.6
v 0.2 0 -0.6
v 0.3 0 -0.6
v 2 0 -0.6
v -2 0 -0.7
v -0.4 0 -0.7
v 0.4 0 -0.7
v 2 0 -0.7
v -0.9 0 -0.9
v -0.7 0 -0.9
v -1 0 -1
v -0.9 0 -1
v -0.7 0 -1
v -0.6 0 -1
v -1 0 -1.3
v -0.6 0 -1.3
v 0.9 0 -1.3
v 1 0 -1.3
v 1.3 0 -1.3
v 1.4 0 -1.3
v 1 0 -1.5
v 1.3 0 -1.5
v -1.3 0 -1.7
v -1.1 0 -1.7
v 0.8 0 -1.7
v 0.9 0 -1.7
v 1.4 0 -1.7
v 1.5 0 -1.7
v -1.4 0 -1.8
v -1.3 0 -1.8
v -1.1 0 -1.8
v -1 0 -1.8
v 0.7 0 -1.8
v 0.8 0 -1.8
v 1.5 0 -1.8
v 1.6 0 -1.8
v 0.7 0 -1.9
v 0.8 0 -1.9
v 1.5 0 -1.9
v 1.6 0 -1.9
v 0.8 0 -2
v 0.9 0 -2
v 1.4 0 -2
v 1.5 0 -2
v -1.4 0 -2.1
v -1 0 -2.1
v 0.9 0 -2.1
v 1 0 -2.1
v 1.3 0 -2.1
v 1.4 0 -2.1
v 1 0 -2.2
v 1.1 0 -2.2
v 1.2 0 -2.2
v 1.3 0 -2.2
v 1.1 0 -2.3
v 1.2 0 -2.3
v -1.7 0 -2.4
v -1.5 0 -2.4
v -1.8 0 -2.5
v -1.7 0 -2.5
v -1.5 0 -2.5
v -1.4 0 -2.5
v -1.8 0 -2.8
v -1.4 0 -2.8
v -2.1 0 -3
v -2 0 -3
v -0.4 0 -3
v -0.3 0 -3
v -0.2 0 -3
v -0.0999999 0 -3
v 0.1 0 -3
v 0.2 0 -3
v 0.3 0 -3
v 0.4 0 -3
v 2 0 -3
v 2.1 0 -3
v -2 0 -3.1
v 2 0 -3.1
v -3.8 0 -4.1
v 3.8 0 -4.1
v -4 0 -4.3
v 4 0 -4.3
v -4 0.1 3.7
v 4 0.1 3.7
v -3.8 0.1 3.5
v 3.8 0.1 3.5
v -2 0.1 2.5
v 2 0.1 2.5
v -2.1 0.1 2.4
v -2 0.1 2.4
v -0.4 0.1 2.4
v -0.3 0.1 2.4
v -0.2 0.1 2.4
v -0.0999999 0.1 2.4
v 0.1 0.1 2.4
v 0.2 0.1 2.4
v 0.3 0.1 2.4
v 0.4 0.1 2.4
v 2 0.1 2.4
v 2.1 0.1 2.4
v 1.5 0.1 2.2
v 1.7 0.1 2.2
v 1.4 0.1 2.1
v 1.5 0.1 2.1
v 1.7 0.1 2.1
v 1.8 0.1 2.1
v -1.5 0.1 1.8
v -1.4 0.1 1.8
v -1.1 0.1 1.8
v -1 0.1 1.8
v 1.4 0.1 1.8
v 1.8 0.1 1.8
v -1.4 0.1 1.6
v -1.1 0.1 1.6
v -1.6 0.1 1.4
v -1.5 0.1 1.4
v -1 0.1 1.4
v -0.9 0.1 1.4
v 1.1 0.1 1.4
v 1.3 0.1 1.4
v -1.7 0.1 1.3
v -1.6 0.1 1.3
v -0.9 0.1 1.3
v -0.8 0.1 1.3
v 1 0.1 1.3
v 1.1 0.1 1.3
v 1.3 0.1 1.3
v 1.4 0.1 1.3
v -1.7 0.1 1.2
v -1.6 0.1 1.2
v -0.9 0.1 1.2
v -0.8 0.1 1.2
v -1.6 0.1 1.1
v -1.5 0.1 1.1
v -1 0.1 1.1
v -0.9 0.1 1.1
v -1.5 0.1 1
v -1.4 0.1 1
v -1.1 0.1 1
v -1 0.1 1
v 1 0.1 1
v 1.4 0.1 1
v -1.4 0.1 0.9
v -1.3 0.1 0.9
v -1.2 0.1 0.9
v -1.1 0.1 0.9
v -1.3 0.1 0.8
v -1.2 0.1 0.8
v 0.6 0.1 0.7
v 0.8 0.1 0.7
v 0.5 0.1 0.6
v 0.6 0.1 0.6
v 0.8 0.1 0.6
v 0.9 0.1 0.6
v 0.5 0.1 0.3
v 0.9 0.1 0.3
v -2 0.1 0.0999999
v -0.4 0.1 0.0999999
v 0.4 0.1 0.0999999
v 2 0.1 0.0999999
v -2 0.1 0
v -0.3 0.1 0
v -0.2 0.1 0
v 0.2 0.1 0
v 0.3 0.1 0
v 2 0.1 0
v -2 0.1 -0.1
v -0.3 0.1 -0.1
v 0.3 0.1 -0.1
v 2 0.1 -0.1
v -2 0.1 -0.2
v -0.0999999 0.1 -0.2
v 0.1 0.1 -0.2
v 2 0.1 -0.2
v -2 0.1 -0.4
v -0.0999999 0.1 -0.4
v 0.1 0.1 -0.4
v 2 0.1 -0.4
v -2 0.1 -0.5
v -0.3 0.1 -0.5
v 0.3 0.1 -0.5
v 2 0.1 -0.5
v -2 0.1 -0.6
v -0.3 0.1 -0.6
v -0.2 0.1 -0.6
v 0.2 0.1 -0.6
v 0.3 0.1 -0.6
v 2 0.1 -0.6
v -2 0.1 -0.7
v -0.4 0.1 -0.7
v 0.4 0.1 -0.7
v 2 0.1 -0.7
v -0.9 0.1 -0.9
v -0.7 0.1 -0.9
v -1 0.1 -1
v -0.9 0.1 -1
v -0.7 0.1 -1
v -0.6 0.1 -1
v -1 0.1 -1.3
v -0.6 0.1 -1.3
v 0.9 0.1 -1.3
v 1 0.1 -1.3
v 1.3 0.1 -1.3
v 1.4 0.1 -1.3
v 1 0.1 -1.5
v 1.3 0.1 -1.5
v -1.3 0.1 -1.7
v -1.1 0.1 -1.7
v 0.8 0.1 -1.7
v 0.9 0.1 -1.7
v 1.4 0.1 -1.7
v 1.5 0.1 -1.7
v -1.4 0.1 -1.8
v -1.3 0.1 -1.8
v -1.1 0.1 -1.8
v -1 0.1 -1.8
v 0.7 0.1 -1.8
v 0.8 0.1 -1.8
v 1.5 0.1 -1.8
v 1.6 0.1 -1.8
v 0.7 0.1 -1.9
v 0.8 0.1 -1.9
v 1.5 0.1 -1.9
v 1.6 0.1 -1.9
v 0.8 0.1 -2
v 0.9 0.1 -2
v 1.4 0.1 -2
v 1.5 0.1 -2
v -1.4 0.1 -2.1
v -1 0.1 -2.1
v 0.9 0.1 -2.1
v 1 0.1 -2.1
v 1.3 0.1 -2.1
v 1.4 0.1 -2.1
v 1 0.1 -2.2
v 1.1 0.1 -2.2
v 1.2 0.1 -2.2
v 1.3 0.1 -2.2
v 1.1 0.1 -2.3
v 1.2 0.1 -2.3
v -1.7 0.1 -2.4
v -1.5 0.1 -2.4
v -1.8 0.1 -2.5
v -1.7 0.1 -2.5
v -1.5 0.1 -2.5
v -1.4 0.1 -2.5
v -1.8 0.1 -2.8
v -1.4 0.1 -2.8
v -2.1 0.1 -3
v -2 0.1 -3
v -0.4 0.1 -3
v -0.3 0.1 -3
v -0.2 0.1 -3
v -0.0999999 0.1 -3
v 0.1 0.1 -3
v 0.2 0.1 -3
v 0.3 0.1 -3
v 0.4 0.1 -3
v 2 0.1 -3
v 2.1 0.1 -3
v -2 0.1 -3.1
v 2 0.1 -3.1
v -3.8 0.1 -4.1
v 3.8 0.1 -4.1
v -4 0.1 -4.3
v 4 0.1 -4.3

# faces
f 3/3/1 2/3/1 1/3/1
f 4/3/1 2/3/1 3/3/1
f 5/3/2 6/3/2 7/3/2
f 7/3/2 6/3/2 8/3/2
f 11/3/3 10/3/3 9/3/3
f 12/3/3 10/3/3 11/3/3
f 13/3/4 14/3/4 15/3/4
f 15/3/4 14/3/4 16/3/4
f 19/3/5 18/3/5 17/3/5
f 20/3/5 18/3/5 19/3/5
f 21/2/5 20/2/5 19/2/5
f 22/2/5 20/2/5 21/2/5
f 23/2/5 21/2/5 19/2/5
f 24/1/5 22/1/5 21/1/5
f 24/2/5 21/2/5 23/2/5
f 25/1/5 22/1/5 24/1/5
f 26/1/5 22/1/5 25/1/5
f 27/1/5 22/1/5 26/1/5
f 28/1/5 22/1/5 27/1/5
f 29/1/5 22/1/5 28/1/5
f 30/1/5 22/1/5 29/1/5
f 31/1/5 22/1/5 30/1/5
f 32/1/5 22/1/5 31/1/5
f 33/2/5 20/2/5 22/2/5
f 33/1/5 22/1/5 32/1/5
f 34/2/5 20/2/5 33/2/5
f 35/4/5 33/4/5 32/4/5
f 36/4/5 33/4/5 35/4/5
f 37/4/5 35/4/5 32/4/5
f 38/1/5 36/1/5 35/1/5
f 38/4/5 35/4/5 37/4/5
f 39/4/5 33/4/5 36/4/5
f 39/1/5 36/1/5 38/1/5
f 40/4/5 33/4/5 39/4/5
f 41/4/5 25/4/5 24/4/5
f 42/4/5 25/4/5 41/4/5
f 43/4/5 25/4/5 42/4/5
f 44/4/5 25/4/5 43/4/5
f 45/1/5 38/1/5 37/1/5
f 45/4/5 37/4/5 32/4/5
f 45/1/5 39/1/5 38/1/5
f 45/1/5 40/1/5 39/1/5
f 46/4/5 33/4/5 40/4/5
f 46/1/5 40/1/5 45/1/5
f 47/4/5 43/4/5 42/4/5
f 47/1/5 42/1/5 41/1/5
f 48/1/5 44/1/5 43/1/5
f 48/4/5 43/4/5 47/4/5
f 49/4/5 41/4/5 24/4/5
f 50/1/5 47/1/5 41/1/5
f 50/4/5 41/4/5 49/4/5
f 50/1/5 48/1/5 47/1/5
f 51/4/5 25/4/5 44/4/5
f 51/1/5 48/1/5 50/1/5
f 51/1/5 44/1/5 48/1/5
f 52/4/5 25/4/5 51/4/5
f 53/4/5 45/4/5 32/4/5
f 53/4/5 46/4/5 45/4/5
f 54/4/5 46/4/5 53/4/5
f 55/4/5 49/4/5 24/4/5
f 56/1/5 50/1/5 49/1/5
f 56/4/5 49/4/5 55/4/5
f 56/1/5 52/1/5 51/1/5
f 56/1/5 51/1/5 50/1/5
f 57/4/5 25/4/5 52/4/5
f 57/1/5 52/1/5 56/1/5
f 58/4/5 25/4/5 57/4/5
f 59/4/5 53/4/5 32/4/5
f 60/1/5 54/1/5 53/1/5
f 60/4/5 53/4/5 59/4/5
f 61/4/5 46/4/5 54/4/5
f 61/1/5 54/1/5 60/1/5
f 62/4/5 46/4/5 61/4/5
f 63/1/5 56/1/5 55/1/5
f 63/4/5 55/4/5 24/4/5
f 63/1/5 57/1/5 56/1/5
f 63/1/5 58/1/5 57/1/5
f 64/1/5 58/1/5 63/1/5
f 65/1/5 58/1/5 64/1/5
f 66/4/5 25/4/5 58/4/5
f 66/1/5 58/1/5 65/1/5
f 67/1/5 65/1/5 64/1/5
f 67/4/5 64/4/5 63/4/5
f 68/1/5 65/1/5 67/1/5
f 69/1/5 65/1/5 68/1/5
f 70/4/5 66/4/5 65/4/5
f 70/1/5 65/1/5 69/1/5
f 71/1/5 69/1/5 68/1/5
f 71/4/5 68/4/5 67/4/5
f 72/1/5 69/1/5 71/1/5
f 73/1/5 69/1/5 72/1/5
f 74/4/5 70/4/5 69/4/5
f 74/1/5 69/1/5 73/1/5
f 75/1/5 62/1/5 61/1/5
f 75/1/5 60/1/5 59/1/5
f 75/4/5 59/4/5 32/4/5
f 75/1/5 61/1/5 60/1/5
f 76/4/5 46/4/5 62/4/5
f 76/1/5 62/1/5 75/1/5
f 77/4/5 72/4/5 71/4/5
f 77/1/5 73/1/5 72/1/5
f 78/1/5 73/1/5 77/1/5
f 79/1/5 73/1/5 78/1/5
f 80/4/5 74/4/5 73/4/5
f 80/1/5 73/1/5 79/1/5
f 81/1/5 79/1/5 78/1/5
f 81/4/5 78/4/5 77/4/5
f 82/4/5 80/4/5 79/4/5
f 82/1/5 79/1/5 81/1/5
f 83/4/5 75/4/5 32/4/5
f 83/4/5 76/4/5 75/4/5
f 84/4/5 76/4/5 83/4/5
f 85/4/5 83/4/5 32/4/5
f 86/1/5 84/1/5 83/1/5
f 86/4/5 83/4/5 85/4/5
f 87/4/5 76/4/5 84/4/5
f 87/1/5 84/1/5 86/1/5
f 88/4/5 76/4/5 87/4/5
f 89/1/5 86/1/5 85/1/5
f 89/4/5 85/4/5 32/4/5
f 89/1/5 88/1/5 87/1/5
f 89/1/5 87/1/5 86/1/5
f 90/4/5 76/4/5 88/4/5
f 90/1/5 88/1/5 89/1/5
f 91/1/5 24/1/5 23/1/5
f 91/4/5 71/4/5 67/4/5
f 91/4/5 63/4/5 24/4/5
f 91/4/5 67/4/5 63/4/5
f 91/4/5 81/4/5 77/4/5
f 91/4/5 77/4/5 71/4/5
f 91/4/5 82/4/5 81/4/5
f 92/4/5 80/4/5 82/4/5
f 92/4/5 82/4/5 91/4/5
f 92/1/5 26/1/5 25/1/5
f 92/4/5 66/4/5 70/4/5
f 92/4/5 70/4/5 74/4/5
f 92/4/5 74/4/5 80/4/5
f 92/4/5 25/4/5 66/4/5
f 93/1/5 32/1/5 31/1/5
f 93/4/5 89/4/5 32/4/5
f 93/4/5 90/4/5 89/4/5
f 94/4/5 76/4/5 90/4/5
f 94/4/5 90/4/5 93/4/5
f 94/1/5 34/1/5 33/1/5
f 94/4/5 46/4/5 76/4/5
f 94/4/5 33/4/5 46/4/5
f 95/1/5 91/1/5 23/1/5
f 95/1/5 92/1/5 91/1/5
f 96/1/5 26/1/5 92/1/5
f 96/1/5 92/1/5 95/1/5
f 96/2/5 27/2/5 26/2/5
f 97/1/5 28/1/5 27/1/5
f 97/2/5 27/2/5 96/2/5
f 98/1/5 30/1/5 29/1/5
f 98/2/5 31/2/5 30/2/5
f 99/1/5 93/1/5 31/1/5
f 99/2/5 31/2/5 98/2/5
f 99/1/5 94/1/5 93/1/5
f 100/1/5 34/1/5 94/1/5
f 100/1/5 94/1/5 99/1/5
f 101/1/5 95/1/5 23/1/5
f 101/2/5 96/2/5 95/2/5
f 102/1/5 97/1/5 96/1/5
f 102/2/5 96/2/5 101/2/5
f 103/1/5 99/1/5 98/1/5
f 103/2/5 100/2/5 99/2/5
f 104/1/5 34/1/5 100/1/5
f 104/2/5 100/2/5 103/2/5
f 105/1/5 101/1/5 23/1/5
f 105/1/5 102/1/5 101/1/5
f 106/1/5 97/1/5 102/1/5
f 106/1/5 102/1/5 105/1/5
f 106/2/5 29/2/5 28/2/5
f 106/1/5 28/1/5 97/1/5
f 107/1/5 103/1/5 98/1/5
f 107/2/5 29/2/5 106/2/5
f 107/1/5 98/1/5 29/1/5
f 107/1/5 104/1/5 103/1/5
f 108/1/5 34/1/5 104/1/5
f 108/1/5 104/1/5 107/1/5
f 109/2/5 106/2/5 105/2/5
f 109/1/5 105/1/5 23/1/5
f 110/1/5 107/1/5 106/1/5
f 110/2/5 106/2/5 109/2/5
f 111/2/5 108/2/5 107/2/5
f 111/1/5 107/1/5 110/1/5
f 112/1/5 34/1/5 108/1/5
f 112/2/5 108/2/5 111/2/5
f 113/1/5 110/1/5 109/1/5
f 113/1/5 109/1/5 23/1/5
f 114/1/5 110/1/5 113/1/5
f 115/1/5 112/1/5 111/1/5
f 116/1/5 34/1/5 112/1/5
f 116/1/5 112/1/5 115/1/5
f 117/1/5 113/1/5 23/1/5
f 117/2/5 114/2/5 113/2/5
f 118/1/5 110/1/5 114/1/5
f 118/2/5 114/2/5 117/2/5
f 119/1/5 110/1/5 118/1/5
f 120/1/5 115/1/5 111/1/5
f 121/2/5 116/2/5 115/2/5
f 121/1/5 115/1/5 120/1/5
f 122/1/5 34/1/5 116/1/5
f 122/2/5 116/2/5 121/2/5
f 123/1/5 117/1/5 23/1/5
f 123/1/5 118/1/5 117/1/5
f 124/1/5 118/1/5 123/1/5
f 125/1/5 122/1/5 121/1/5
f 126/1/5 34/1/5 122/1/5
f 126/1/5 122/1/5 125/1/5
f 127/4/5 124/4/5 123/4/5
f 128/4/5 124/4/5 127/4/5
f 129/4/5 127/4/5 123/4/5
f 130/1/5 128/1/5 127/1/5
f 130/4/5 127/4/5 129/4/5
f 131/4/5 124/4/5 128/4/5
f 131/1/5 128/1/5 130/1/5
f 132/4/5 124/4/5 131/4/5
f 133/1/5 130/1/5 129/1/5
f 133/4/5 129/4/5 123/4/5
f 133/1/5 132/1/5 131/1/5
f 133/1/5 131/1/5 130/1/5
f 134/4/5 124/4/5 132/4/5
f 134/1/5 132/1/5 133/1/5
f 135/4/5 126/4/5 125/4/5
f 136/4/5 126/4/5 135/4/5
f 137/4/5 126/4/5 136/4/5
f 138/4/5 126/4/5 137/4/5
f 139/1/5 136/1/5 135/1/5
f 139/4/5 137/4/5 136/4/5
f 140/1/5 138/1/5 137/1/5
f 140/4/5 137/4/5 139/4/5
f 141/4/5 133/4/5 123/4/5
f 141/4/5 134/4/5 133/4/5
f 142/4/5 134/4/5 141/4/5
f 143/4/5 135/4/5 125/4/5
f 144/1/5 140/1/5 139/1/5
f 144/4/5 135/4/5 143/4/5
f 144/1/5 139/1/5 135/1/5
f 145/1/5 138/1/5 140/1/5
f 145/1/5 140/1/5 144/1/5
f 145/4/5 126/4/5 138/4/5
f 146/4/5 126/4/5 145/4/5
f 147/4/5 141/4/5 123/4/5
f 148/1/5 142/1/5 141/1/5
f 148/4/5 141/4/5 147/4/5
f 149/4/5 134/4/5 142/4/5
f 149/1/5 142/1/5 148/1/5
f 150/4/5 134/4/5 149/4/5
f 151/4/5 143/4/5 125/4/5
f 152/1/5 144/1/5 143/1/5
f 152/4/5 143/4/5 151/4/5
f 152/1/5 145/1/5 144/1/5
f 152/1/5 146/1/5 145/1/5
f 153/4/5 126/4/5 146/4/5
f 153/1/5 146/1/5 152/1/5
f 154/4/5 126/4/5 153/4/5
f 155/4/5 151/4/5 125/4/5
f 155/1/5 152/1/5 151/1/5
f 155/1/5 154/1/5 153/1/5
f 155/1/5 153/1/5 152/1/5
f 156/1/5 154/1/5 155/1/5
f 157/1/5 154/1/5 156/1/5
f 158/4/5 126/4/5 154/4/5
f 158/1/5 154/1/5 157/1/5
f 159/1/5 157/1/5 156/1/5
f 159/4/5 156/4/5 155/4/5
f 160/1/5 157/1/5 159/1/5
f 161/1/5 157/1/5 160/1/5
f 162/4/5 158/4/5 157/4/5
f 162/1/5 157/1/5 161/1/5
f 163/1/5 148/1/5 147/1/5
f 163/1/5 149/1/5 148/1/5
f 163/4/5 147/4/5 123/4/5
f 163/1/5 150/1/5 149/1/5
f 164/4/5 134/4/5 150/4/5
f 164/1/5 150/1/5 163/1/5
f 165/4/5 160/4/5 159/4/5
f 165/1/5 161/1/5 160/1/5
f 166/1/5 161/1/5 165/1/5
f 167/1/5 161/1/5 166/1/5
f 168/4/5 162/4/5 161/4/5
f 168/1/5 161/1/5 167/1/5
f 169/1/5 167/1/5 166/1/5
f 169/4/5 166/4/5 165/4/5
f 170/1/5 167/1/5 169/1/5
f 171/1/5 167/1/5 170/1/5
f 172/4/5 168/4/5 167/4/5
f 172/1/5 167/1/5 171/1/5
f 173/1/5 171/1/5 170/1/5
f 173/4/5 170/4/5 169/4/5
f 174/4/5 172/4/5 171/4/5
f 174/1/5 171/1/5 173/1/5
f 175/4/5 163/4/5 123/4/5
f 175/4/5 164/4/5 163/4/5
f 176/4/5 164/4/5 175/4/5
f 177/4/5 175/4/5 123/4/5
f 178/1/5 176/1/5 175/1/5
f 178/4/5 175/4/5 177/4/5
f 179/4/5 164/4/5 176/4/5
f 179/1/5 176/1/5 178/1/5
f 180/4/5 164/4/5 179/4/5
f 181/1/5 178/1/5 177/1/5
f 181/4/5 177/4/5 123/4/5
f 181/1/5 180/1/5 179/1/5
f 181/1/5 179/1/5 178/1/5
f 182/4/5 164/4/5 180/4/5
f 182/1/5 180/1/5 181/1/5
f 183/2/5 23/2/5 19/2/5
f 183/1/5 123/1/5 23/1/5
f 184/4/5 182/4/5 181/4/5
f 184/1/5 123/1/5 183/1/5
f 184/4/5 181/4/5 123/4/5
f 185/4/5 164/4/5 182/4/5
f 185/4/5 182/4/5 184/4/5
f 185/1/5 118/1/5 124/1/5
f 185/4/5 124/4/5 134/4/5
f 185/4/5 134/4/5 164/4/5
f 186/2/5 119/2/5 118/2/5
f 186/1/5 118/1/5 185/1/5
f 187/1/5 110/1/5 119/1/5
f 187/2/5 119/2/5 186/2/5
f 188/2/5 111/2/5 110/2/5
f 188/1/5 110/1/5 187/1/5
f 189/1/5 120/1/5 111/1/5
f 189/2/5 111/2/5 188/2/5
f 190/2/5 121/2/5 120/2/5
f 190/1/5 120/1/5 189/1/5
f 191/1/5 125/1/5 121/1/5
f 191/2/5 121/2/5 190/2/5
f 192/4/5 173/4/5 169/4/5
f 192/1/5 125/1/5 191/1/5
f 192/4/5 169/4/5 165/4/5
f 192/4/5 165/4/5 159/4/5
f 192/4/5 174/4/5 173/4/5
f 192/4/5 155/4/5 125/4/5
f 192/4/5 159/4/5 155/4/5
f 193/1/5 34/1/5 126/1/5
f 193/4/5 174/4/5 192/4/5
f 193/4/5 168/4/5 172/4/5
f 193/4/5 162/4/5 168/4/5
f 193/4/5 158/4/5 162/4/5
f 193/4/5 172/4/5 174/4/5
f 193/4/5 126/4/5 158/4/5
f 194/2/5 20/2/5 34/2/5
f 194/1/5 34/1/5 193/1/5
f 195/1/5 187/1/5 186/1/5
f 195/2/5 184/2/5 183/2/5
f 195/1/5 193/1/5 192/1/5
f 195/1/5 192/1/5 191/1/5
f 195/1/5 186/1/5 185/1/5
f 195/1/5 185/1/5 184/1/5
f 195/1/5 191/1/5 190/1/5
f 195/1/5 188/1/5 187/1/5
f 195/1/5 189/1/5 188/1/5
f 195/1/5 190/1/5 189/1/5
f 196/2/5 194/2/5 193/2/5
f 196/1/5 193/1/5 195/1/5
f 197/3/5 19/3/5 17/3/5
f 197/2/5 195/2/5 183/2/5
f 197/2/5 196/2/5 195/2/5
f 197/2/5 183/2/5 19/2/5
f 198/2/5 194/2/5 196/2/5
f 198/2/5 196/2/5 197/2/5
f 198/3/5 18/3/5 20/3/5
f 198/2/5 20/2/5 194/2/5
f 199/3/5 197/3/5 17/3/5
f 199/3/5 198/3/5 197/3/5
f 200/3/5 18/3/5 198/3/5
f 200/3/5 198/3/5 199/3/5
f 201/3/6 202/3/6 203/3/6
f 203/3/6 202/3/6 204/3/6
f 203/2/6 204/2/6 205/2/6
f 205/2/6 204/2/6 206/2/6
f 203/2/6 205/2/6 207/2/6
f 205/1/6 206/1/6 208/1/6
f 207/2/6 205/2/6 208/2/6
f 208/1/6 206/1/6 209/1/6
f 209/1/6 206/1/6 210/1/6
f 210/1/6 206/1/6 211/1/6
f 211/1/6 206/1/6 212/1/6
f 212/1/6 206/1/6 213/1/6
f 213/1/6 206/1/6 214/1/6
f 214/1/6 206/1/6 215/1/6
f 215/1/6 206/1/6 216/1/6
f 206/2/6 204/2/6 217/2/6
f 216/1/6 206/1/6 217/1/6
f 217/2/6 204/2/6 218/2/6
f 216/4/6 217/4/6 219/4/6
f 219/4/6 217/4/6 220/4/6
f 216/4/6 219/4/6 221/4/6
f 219/1/6 220/1/6 222/1/6
f 221/4/6 219/4/6 222/4/6
f 220/4/6 217/4/6 223/4/6
f 222/1/6 220/1/6 223/1/6
f 223/4/6 217/4/6 224/4/6
f 208/4/6 209/4/6 225/4/6
f 225/4/6 209/4/6 226/4/6
f 226/4/6 209/4/6 227/4/6
f 227/4/6 209/4/6 228/4/6
f 221/1/6 222/1/6 229/1/6
f 216/4/6 221/4/6 229/4/6
f 222/1/6 223/1/6 229/1/6
f 223/1/6 224/1/6 229/1/6
f 224/4/6 217/4/6 230/4/6
f 229/1/6 224/1/6 230/1/6
f 226/4/6 227/4/6 231/4/6
f 225/1/6 226/1/6 231/1/6
f 227/1/6 228/1/6 232/1/6
f 231/4/6 227/4/6 232/4/6
f 208/4/6 225/4/6 233/4/6
f 225/1/6 231/1/6 234/1/6
f 233/4/6 225/4/6 234/4/6
f 231/1/6 232/1/6 234/1/6
f 228/4/6 209/4/6 235/4/6
f 234/1/6 232/1/6 235/1/6
f 232/1/6 228/1/6 235/1/6
f 235/4/6 209/4/6 236/4/6
f 216/4/6 229/4/6 237/4/6
f 229/4/6 230/4/6 237/4/6
f 237/4/6 230/4/6 238/4/6
f 208/4/6 233/4/6 239/4/6
f 233/1/6 234/1/6 240/1/6
f 239/4/6 233/4/6 240/4/6
f 235/1/6 236/1/6 240/1/6
f 234/1/6 235/1/6 240/1/6
f 236/4/6 209/4/6 241/4/6
f 240/1/6 236/1/6 241/1/6
f 241/4/6 209/4/6 242/4/6
f 216/4/6 237/4/6 243/4/6
f 237/1/6 238/1/6 244/1/6
f 243/4/6 237/4/6 244/4/6
f 238/4/6 230/4/6 245/4/6
f 244/1/6 238/1/6 245/1/6
f 245/4/6 230/4/6 246/4/6
f 239/1/6 240/1/6 247/1/6
f 208/4/6 239/4/6 247/4/6
f 240/1/6 241/1/6 247/1/6
f 241/1/6 242/1/6 247/1/6
f 247/1/6 242/1/6 248/1/6
f 248/1/6 242/1/6 249/1/6
f 242/4/6 209/4/6 250/4/6
f 249/1/6 242/1/6 250/1/6
f 248/1/6 249/1/6 251/1/6
f 247/4/6 248/4/6 251/4/6
f 251/1/6 249/1/6 252/1/6
f 252/1/6 249/1/6 253/1/6
f 249/4/6 250/4/6 254/4/6
f 253/1/6 249/1/6 254/1/6
f 252/1/6 253/1/6 255/1/6
f 251/4/6 252/4/6 255/4/6
f 255/1/6 253/1/6 256/1/6
f 256/1/6 253/1/6 257/1/6
f 253/4/6 254/4/6 258/4/6
f 257/1/6 253/1/6 258/1/6
f 245/1/6 246/1/6 259/1/6
f 243/1/6 244/1/6 259/1/6
f 216/4/6 243/4/6 259/4/6
f 244/1/6 245/1/6 259/1/6
f 246/4/6 230/4/6 260/4/6
f 259/1/6 246/1/6 260/1/6
f 255/4/6 256/4/6 261/4/6
f 256/1/6 257/1/6 261/1/6
f 261/1/6 257/1/6 262/1/6
f 262/1/6 257/1/6 263/1/6
f 257/4/6 258/4/6 264/4/6
f 263/1/6 257/1/6 264/1/6
f 262/1/6 263/1/6 265/1/6
f 261/4/6 262/4/6 265/4/6
f 263/4/6 264/4/6 266/4/6
f 265/1/6 263/1/6 266/1/6
f 216/4/6 259/4/6 267/4/6
f 259/4/6 260/4/6 267/4/6
f 267/4/6 260/4/6 268/4/6
f 216/4/6 267/4/6 269/4/6
f 267/1/6 268/1/6 270/1/6
f 269/4/6 267/4/6 270/4/6
f 268/4/6 260/4/6 271/4/6
f 270/1/6 268/1/6 271/1/6
f 271/4/6 260/4/6 272/4/6
f 269/1/6 270/1/6 273/1/6
f 216/4/6 269/4/6 273/4/6
f 271/1/6 272/1/6 273/1/6
f 270/1/6 271/1/6 273/1/6
f 272/4/6 260/4/6 274/4/6
f 273/1/6 272/1/6 274/1/6
f 207/1/6 208/1/6 275/1/6
f 251/4/6 255/4/6 275/4/6
f 208/4/6 247/4/6 275/4/6
f 247/4/6 251/4/6 275/4/6
f 261/4/6 265/4/6 275/4/6
f 255/4/6 261/4/6 275/4/6
f 265/4/6 266/4/6 275/4/6
f 266/4/6 264/4/6 276/4/6
f 275/4/6 266/4/6 276/4/6
f 209/1/6 210/1/6 276/1/6
f 254/4/6 250/4/6 276/4/6
f 258/4/6 254/4/6 276/4/6
f 264/4/6 258/4/6 276/4/6
f 250/4/6 209/4/6 276/4/6
f 215/1/6 216/1/6 277/1/6
f 216/4/6 273/4/6 277/4/6
f 273/4/6 274/4/6 277/4/6
f 274/4/6 260/4/6 278/4/6
f 277/4/6 274/4/6 278/4/6
f 217/1/6 218/1/6 278/1/6
f 260/4/6 230/4/6 278/4/6
f 230/4/6 217/4/6 278/4/6
f 207/1/6 275/1/6 279/1/6
f 275/1/6 276/1/6 279/1/6
f 276/1/6 210/1/6 280/1/6
f 279/1/6 276/1/6 280/1/6
f 210/2/6 211/2/6 280/2/6
f 211/1/6 212/1/6 281/1/6
f 280/2/6 211/2/6 281/2/6
f 213/1/6 214/1/6 282/1/6
f 214/2/6 215/2/6 282/2/6
f 215/1/6 277/1/6 283/1/6
f 282/2/6 215/2/6 283/2/6
f 277/1/6 278/1/6 283/1/6
f 278/1/6 218/1/6 284/1/6
f 283/1/6 278/1/6 284/1/6
f 207/1/6 279/1/6 285/1/6
f 279/2/6 280/2/6 285/2/6
f 280/1/6 281/1/6 286/1/6
f 285/2/6 280/2/6 286/2/6
f 282/1/6 283/1/6 287/1/6
f 283/2/6 284/2/6 287/2/6
f 284/1/6 218/1/6 288/1/6
f 287/2/6 284/2/6 288/2/6
f 207/1/6 285/1/6 289/1/6
f 285/1/6 286/1/6 289/1/6
f 286/1/6 281/1/6 290/1/6
f 289/1/6 286/1/6 290/1/6
f 212/2/6 213/2/6 290/2/6
f 281/1/6 212/1/6 290/1/6
f 282/1/6 287/1/6 291/1/6
f 290/2/6 213/2/6 291/2/6
f 213/1/6 282/1/6 291/1/6
f 287/1/6 288/1/6 291/1/6
f 288/1/6 218/1/6 292/1/6
f 291/1/6 288/1/6 292/1/6
f 289/2/6 290/2/6 293/2/6
f 207/1/6 289/1/6 293/1/6
f 290/1/6 291/1/6 294/1/6
f 293/2/6 290/2/6 294/2/6
f 291/2/6 292/2/6 295/2/6
f 294/1/6 291/1/6 295/1/6
f 292/1/6 218/1/6 296/1/6
f 295/2/6 292/2/6 296/2/6
f 293/1/6 294/1/6 297/1/6
f 207/1/6 293/1/6 297/1/6
f 297/1/6 294/1/6 298/1/6
f 295/1/6 296/1/6 299/1/6
f 296/1/6 218/1/6 300/1/6
f 299/1/6 296/1/6 300/1/6
f 207/1/6 297/1/6 301/1/6
f 297/2/6 298/2/6 301/2/6
f 298/1/6 294/1/6 302/1/6
f 301/2/6 298/2/6 302/2/6
f 302/1/6 294/1/6 303/1/6
f 295/1/6 299/1/6 304/1/6
f 299/2/6 300/2/6 305/2/6
f 304/1/6 299/1/6 305/1/6
f 300/1/6 218/1/6 306/1/6
f 305/2/6 300/2/6 306/2/6
f 207/1/6 301/1/6 307/1/6
f 301/1/6 302/1/6 307/1/6
f 307/1/6 302/1/6 308/1/6
f 305/1/6 306/1/6 309/1/6
f 306/1/6 218/1/6 310/1/6
f 309/1/6 306/1/6 310/1/6
f 307/4/6 308/4/6 311/4/6
f 311/4/6 308/4/6 312/4/6
f 307/4/6 311/4/6 313/4/6
f 311/1/6 312/1/6 314/1/6
f 313/4/6 311/4/6 314/4/6
f 312/4/6 308/4/6 315/4/6
f 314/1/6 312/1/6 315/1/6
f 315/4/6 308/4/6 316/4/6
f 313/1/6 314/1/6 317/1/6
f 307/4/6 313/4/6 317/4/6
f 315/1/6 316/1/6 317/1/6
f 314/1/6 315/1/6 317/1/6
f 316/4/6 308/4/6 318/4/6
f 317/1/6 316/1/6 318/1/6
f 309/4/6 310/4/6 319/4/6
f 319/4/6 310/4/6 320/4/6
f 320/4/6 310/4/6 321/4/6
f 321/4/6 310/4/6 322/4/6
f 319/1/6 320/1/6 323/1/6
f 320/4/6 321/4/6 323/4/6
f 321/1/6 322/1/6 324/1/6
f 323/4/6 321/4/6 324/4/6
f 307/4/6 317/4/6 325/4/6
f 317/4/6 318/4/6 325/4/6
f 325/4/6 318/4/6 326/4/6
f 309/4/6 319/4/6 327/4/6
f 323/1/6 324/1/6 328/1/6
f 327/4/6 319/4/6 328/4/6
f 319/1/6 323/1/6 328/1/6
f 324/1/6 322/1/6 329/1/6
f 328/1/6 324/1/6 329/1/6
f 322/4/6 310/4/6 329/4/6
f 329/4/6 310/4/6 330/4/6
f 307/4/6 325/4/6 331/4/6
f 325/1/6 326/1/6 332/1/6
f 331/4/6 325/4/6 332/4/6
f 326/4/6 318/4/6 333/4/6
f 332/1/6 326/1/6 333/1/6
f 333/4/6 318/4/6 334/4/6
f 309/4/6 327/4/6 335/4/6
f 327/1/6 328/1/6 336/1/6
f 335/4/6 327/4/6 336/4/6
f 328/1/6 329/1/6 336/1/6
f 329/1/6 330/1/6 336/1/6
f 330/4/6 310/4/6 337/4/6
f 336/1/6 330/1/6 337/1/6
f 337/4/6 310/4/6 338/4/6
f 309/4/6 335/4/6 339/4/6
f 335/1/6 336/1/6 339/1/6
f 337/1/6 338/1/6 339/1/6
f 336/1/6 337/1/6 339/1/6
f 339/1/6 338/1/6 340/1/6
f 340/1/6 338/1/6 341/1/6
f 338/4/6 310/4/6 342/4/6
f 341/1/6 338/1/6 342/1/6
f 340/1/6 341/1/6 343/1/6
f 339/4/6 340/4/6 343/4/6
f 343/1/6 341/1/6 344/1/6
f 344/1/6 341/1/6 345/1/6
f 341/4/6 342/4/6 346/4/6
f 345/1/6 341/1/6 346/1/6
f 331/1/6 332/1/6 347/1/6
f 332/1/6 333/1/6 347/1/6
f 307/4/6 331/4/6 347/4/6
f 333/1/6 334/1/6 347/1/6
f 334/4/6 318/4/6 348/4/6
f 347/1/6 334/1/6 348/1/6
f 343/4/6 344/4/6 349/4/6
f 344/1/6 345/1/6 349/1/6
f 349/1/6 345/1/6 350/1/6
f 350/1/6 345/1/6 351/1/6
f 345/4/6 346/4/6 352/4/6
f 351/1/6 345/1/6 352/1/6
f 350/1/6 351/1/6 353/1/6
f 349/4/6 350/4/6 353/4/6
f 353/1/6 351/1/6 354/1/6
f 354/1/6 351/1/6 355/1/6
f 351/4/6 352/4/6 356/4/6
f 355/1/6 351/1/6 356/1/6
f 354/1/6 355/1/6 357/1/6
f 353/4/6 354/4/6 357/4/6
f 355/4/6 356/4/6 358/4/6
f 357/1/6 355/1/6 358/1/6
f 307/4/6 347/4/6 359/4/6
f 347/4/6 348/4/6 359/4/6
f 359/4/6 348/4/6 360/4/6
f 307/4/6 359/4/6 361/4/6
f 359/1/6 360/1/6 362/1/6
f 361/4/6 359/4/6 362/4/6
f 360/4/6 348/4/6 363/4/6
f 362/1/6 360/1/6 363/1/6
f 363/4/6 348/4/6 364/4/6
f 361/1/6 362/1/6 365/1/6
f 307/4/6 361/4/6 365/4/6
f 363/1/6 364/1/6 365/1/6
f 362/1/6 363/1/6 365/1/6
f 364/4/6 348/4/6 366/4/6
f 365/1/6 364/1/6 366/1/6
f 203/2/6 207/2/6 367/2/6
f 207/1/6 307/1/6 367/1/6
f 365/4/6 366/4/6 368/4/6
f 367/1/6 307/1/6 368/1/6
f 307/4/6 365/4/6 368/4/6
f 366/4/6 348/4/6 369/4/6
f 368/4/6 366/4/6 369/4/6
f 308/1/6 302/1/6 369/1/6
f 318/4/6 308/4/6 369/4/6
f 348/4/6 318/4/6 369/4/6
f 302/2/6 303/2/6 370/2/6
f 369/1/6 302/1/6 370/1/6
f 303/1/6 294/1/6 371/1/6
f 370/2/6 303/2/6 371/2/6
f 294/2/6 295/2/6 372/2/6
f 371/1/6 294/1/6 372/1/6
f 295/1/6 304/1/6 373/1/6
f 372/2/6 295/2/6 373/2/6
f 304/2/6 305/2/6 374/2/6
f 373/1/6 304/1/6 374/1/6
f 305/1/6 309/1/6 375/1/6
f 374/2/6 305/2/6 375/2/6
f 353/4/6 357/4/6 376/4/6
f 375/1/6 309/1/6 376/1/6
f 349/4/6 353/4/6 376/4/6
f 343/4/6 349/4/6 376/4/6
f 357/4/6 358/4/6 376/4/6
f 309/4/6 339/4/6 376/4/6
f 339/4/6 343/4/6 376/4/6
f 310/1/6 218/1/6 377/1/6
f 376/4/6 358/4/6 377/4/6
f 356/4/6 352/4/6 377/4/6
f 352/4/6 346/4/6 377/4/6
f 346/4/6 342/4/6 377/4/6
f 358/4/6 356/4/6 377/4/6
f 342/4/6 310/4/6 377/4/6
f 218/2/6 204/2/6 378/2/6
f 377/1/6 218/1/6 378/1/6
f 370/1/6 371/1/6 379/1/6
f 367/2/6 368/2/6 379/2/6
f 376/1/6 377/1/6 379/1/6
f 375/1/6 376/1/6 379/1/6
f 369/1/6 370/1/6 379/1/6
f 368/1/6 369/1/6 379/1/6
f 374/1/6 375/1/6 379/1/6
f 371/1/6 372/1/6 379/1/6
f 372/1/6 373/1/6 379/1/6
f 373/1/6 374/1/6 379/1/6
f 377/2/6 378/2/6 380/2/6
f 379/1/6 377/1/6 380/1/6
f 201/3/6 203/3/6 381/3/6
f 367/2/6 379/2/6 381/2/6
f 379/2/6 380/2/6 381/2/6
f 203/2/6 367/2/6 381/2/6
f 380/2/6 378/2/6 382/2/6
f 381/2/6 380/2/6 382/2/6
f 204/3/6 202/3/6 382/3/6
f 378/2/6 204/2/6 382/2/6
f 201/3/6 381/3/6 383/3/6
f 381/3/6 382/3/6 383/3/6
f 382/3/6 202/3/6 384/3/6
f 383/3/6 382/3/6 384/3/6
