# MagicaVoxel @ Ephtracy

# group
o 

# material
mtllib Knife.mtl
usemtl palette

# normals
vn -1 0 0
vn 1 0 0
vn 0 0 1
vn 0 0 -1
vn 0 -1 0
vn 0 1 0

# texcoords
vt 0.373047 0.5
vt 0.982422 0.5

# verts
v -0.2 0.2 -0.2
v -0.2 0.2 -0.4
v -0.2 0.3 -0.4
v -0.2 0.3 -0.5
v -0.2 0.4 -0.2
v -0.2 0.4 -0.3
v -0.2 2.4 -0.2
v -0.2 2.4 -0.3
v -0.2 2.8 -0.2
v -0.2 2.8 -0.5
v -0.1 0 -0.1
v -0.1 0 -0.4
v -0.1 0.1 -0.4
v -0.1 0.1 -0.5
v -0.1 0.2 -0.2
v -0.1 0.2 -0.4
v -0.1 0.2 -0.5
v -0.1 0.2 -0.6
v -0.1 0.3 -0.4
v -0.1 0.3 -0.5
v -0.1 0.4 -0.2
v -0.1 0.4 -0.3
v -0.1 2.4 -0.2
v -0.1 2.4 -0.3
v -0.1 2.4 -0.6
v -0.1 2.4 -0.7
v -0.1 2.5 0
v -0.1 2.5 -0.1
v -0.1 2.8 0
v -0.1 2.8 -0.2
v -0.1 2.8 -0.5
v -0.1 2.8 -0.7
v -0.1 5.2 -0.2
v -0.1 5.2 -0.3
v -0.1 5.2 -0.4
v -0.1 5.2 -0.5
v -0.1 6 -0.3
v -0.1 6 -0.4
v 0 0.1 0
v 0 0.1 -0.1
v 0 0.3 0
v 0 0.3 -0.1
v 0 2.3 -0.6
v 0 2.3 -0.7
v 0 2.4 -0.6
v 0 2.4 -0.7
v 0 2.6 0.1
v 0 2.6 0
v 0 2.6 -0.7
v 0 2.6 -0.8
v 0 2.8 0.1
v 0 2.8 0
v 0 2.8 -0.2
v 0 2.8 -0.5
v 0 2.8 -0.7
v 0 2.8 -0.8
v 0 4.4 0
v 0 4.4 -0.1
v 0 4.4 -0.6
v 0 4.4 -0.7
v 0 5.2 -0.2
v 0 5.2 -0.3
v 0 5.2 -0.4
v 0 5.2 -0.5
v 0 5.7 -0.1
v 0 5.7 -0.2
v 0 5.7 -0.5
v 0 5.7 -0.6
v 0 6 -0.2
v 0 6 -0.3
v 0 6 -0.4
v 0 6 -0.5
v 0 6.1 -0.3
v 0 6.1 -0.4
v 0.1 0.1 0
v 0.1 0.1 -0.1
v 0.1 0.3 0
v 0.1 0.3 -0.1
v 0.1 2.3 -0.6
v 0.1 2.3 -0.7
v 0.1 2.4 -0.6
v 0.1 2.4 -0.7
v 0.1 2.6 0.1
v 0.1 2.6 0
v 0.1 2.6 -0.7
v 0.1 2.6 -0.8
v 0.1 2.8 0.1
v 0.1 2.8 0
v 0.1 2.8 -0.2
v 0.1 2.8 -0.5
v 0.1 2.8 -0.7
v 0.1 2.8 -0.8
v 0.1 4.4 0
v 0.1 4.4 -0.1
v 0.1 4.4 -0.6
v 0.1 4.4 -0.7
v 0.1 5.2 -0.2
v 0.1 5.2 -0.3
v 0.1 5.2 -0.4
v 0.1 5.2 -0.5
v 0.1 5.7 -0.1
v 0.1 5.7 -0.2
v 0.1 5.7 -0.5
v 0.1 5.7 -0.6
v 0.1 6 -0.2
v 0.1 6 -0.3
v 0.1 6 -0.4
v 0.1 6 -0.5
v 0.1 6.1 -0.3
v 0.1 6.1 -0.4
v 0.2 0 -0.1
v 0.2 0 -0.4
v 0.2 0.1 -0.4
v 0.2 0.1 -0.5
v 0.2 0.2 -0.2
v 0.2 0.2 -0.4
v 0.2 0.2 -0.5
v 0.2 0.2 -0.6
v 0.2 0.3 -0.4
v 0.2 0.3 -0.5
v 0.2 0.4 -0.2
v 0.2 0.4 -0.3
v 0.2 2.4 -0.2
v 0.2 2.4 -0.3
v 0.2 2.4 -0.6
v 0.2 2.4 -0.7
v 0.2 2.5 0
v 0.2 2.5 -0.1
v 0.2 2.8 0
v 0.2 2.8 -0.2
v 0.2 2.8 -0.5
v 0.2 2.8 -0.7
v 0.2 5.2 -0.2
v 0.2 5.2 -0.3
v 0.2 5.2 -0.4
v 0.2 5.2 -0.5
v 0.2 6 -0.3
v 0.2 6 -0.4
v 0.3 0.2 -0.2
v 0.3 0.2 -0.4
v 0.3 0.3 -0.4
v 0.3 0.3 -0.5
v 0.3 0.4 -0.2
v 0.3 0.4 -0.3
v 0.3 2.4 -0.2
v 0.3 2.4 -0.3
v 0.3 2.8 -0.2
v 0.3 2.8 -0.5
v 0 2.6 0.1
v 0 2.8 0.1
v 0.1 2.6 0.1
v 0.1 2.8 0.1
v -0.1 2.5 0
v -0.1 2.8 0
v 0 0.1 0
v 0 0.3 0
v 0 2.6 0
v 0 2.8 0
v 0 4.4 0
v 0.1 0.1 0
v 0.1 0.3 0
v 0.1 2.6 0
v 0.1 2.8 0
v 0.1 4.4 0
v 0.2 2.5 0
v 0.2 2.8 0
v -0.1 0 -0.1
v -0.1 2.5 -0.1
v 0 0.1 -0.1
v 0 0.3 -0.1
v 0 4.4 -0.1
v 0 5.7 -0.1
v 0.1 0.1 -0.1
v 0.1 0.3 -0.1
v 0.1 4.4 -0.1
v 0.1 5.7 -0.1
v 0.2 0 -0.1
v 0.2 2.5 -0.1
v -0.2 0.2 -0.2
v -0.2 0.4 -0.2
v -0.2 2.4 -0.2
v -0.2 2.8 -0.2
v -0.1 0.2 -0.2
v -0.1 0.4 -0.2
v -0.1 2.4 -0.2
v -0.1 2.8 -0.2
v -0.1 5.2 -0.2
v 0 2.8 -0.2
v 0 5.2 -0.2
v 0 5.7 -0.2
v 0 6 -0.2
v 0.1 2.8 -0.2
v 0.1 5.2 -0.2
v 0.1 5.7 -0.2
v 0.1 6 -0.2
v 0.2 0.2 -0.2
v 0.2 0.4 -0.2
v 0.2 2.4 -0.2
v 0.2 2.8 -0.2
v 0.2 5.2 -0.2
v 0.3 0.2 -0.2
v 0.3 0.4 -0.2
v 0.3 2.4 -0.2
v 0.3 2.8 -0.2
v -0.2 0.4 -0.3
v -0.2 2.4 -0.3
v -0.1 0.4 -0.3
v -0.1 2.4 -0.3
v -0.1 5.2 -0.3
v -0.1 6 -0.3
v 0 5.2 -0.3
v 0 6 -0.3
v 0 6.1 -0.3
v 0.1 5.2 -0.3
v 0.1 6 -0.3
v 0.1 6.1 -0.3
v 0.2 0.4 -0.3
v 0.2 2.4 -0.3
v 0.2 5.2 -0.3
v 0.2 6 -0.3
v 0.3 0.4 -0.3
v 0.3 2.4 -0.3
v -0.2 0.2 -0.4
v -0.2 0.3 -0.4
v -0.1 0 -0.4
v -0.1 0.1 -0.4
v -0.1 0.2 -0.4
v -0.1 0.3 -0.4
v -0.1 5.2 -0.4
v -0.1 6 -0.4
v 0 5.2 -0.4
v 0 6 -0.4
v 0 6.1 -0.4
v 0.1 5.2 -0.4
v 0.1 6 -0.4
v 0.1 6.1 -0.4
v 0.2 0 -0.4
v 0.2 0.1 -0.4
v 0.2 0.2 -0.4
v 0.2 0.3 -0.4
v 0.2 5.2 -0.4
v 0.2 6 -0.4
v 0.3 0.2 -0.4
v 0.3 0.3 -0.4
v -0.2 0.3 -0.5
v -0.2 2.8 -0.5
v -0.1 0.1 -0.5
v -0.1 0.2 -0.5
v -0.1 0.3 -0.5
v -0.1 2.8 -0.5
v -0.1 5.2 -0.5
v 0 2.8 -0.5
v 0 5.2 -0.5
v 0 5.7 -0.5
v 0 6 -0.5
v 0.1 2.8 -0.5
v 0.1 5.2 -0.5
v 0.1 5.7 -0.5
v 0.1 6 -0.5
v 0.2 0.1 -0.5
v 0.2 0.2 -0.5
v 0.2 0.3 -0.5
v 0.2 2.8 -0.5
v 0.2 5.2 -0.5
v 0.3 0.3 -0.5
v 0.3 2.8 -0.5
v -0.1 0.2 -0.6
v -0.1 2.4 -0.6
v 0 2.3 -0.6
v 0 2.4 -0.6
v 0 4.4 -0.6
v 0 5.7 -0.6
v 0.1 2.3 -0.6
v 0.1 2.4 -0.6
v 0.1 4.4 -0.6
v 0.1 5.7 -0.6
v 0.2 0.2 -0.6
v 0.2 2.4 -0.6
v -0.1 2.4 -0.7
v -0.1 2.8 -0.7
v 0 2.3 -0.7
v 0 2.4 -0.7
v 0 2.6 -0.7
v 0 2.8 -0.7
v 0 4.4 -0.7
v 0.1 2.3 -0.7
v 0.1 2.4 -0.7
v 0.1 2.6 -0.7
v 0.1 2.8 -0.7
v 0.1 4.4 -0.7
v 0.2 2.4 -0.7
v 0.2 2.8 -0.7
v 0 2.6 -0.8
v 0 2.8 -0.8
v 0.1 2.6 -0.8
v 0.1 2.8 -0.8
v -0.1 0 -0.1
v 0.2 0 -0.1
v -0.1 0 -0.4
v 0.2 0 -0.4
v 0 0.1 0
v 0.1 0.1 0
v 0 0.1 -0.1
v 0.1 0.1 -0.1
v -0.1 0.1 -0.4
v 0.2 0.1 -0.4
v -0.1 0.1 -0.5
v 0.2 0.1 -0.5
v -0.2 0.2 -0.2
v -0.1 0.2 -0.2
v 0.2 0.2 -0.2
v 0.3 0.2 -0.2
v -0.2 0.2 -0.4
v -0.1 0.2 -0.4
v 0.2 0.2 -0.4
v 0.3 0.2 -0.4
v -0.1 0.2 -0.5
v 0.2 0.2 -0.5
v -0.1 0.2 -0.6
v 0.2 0.2 -0.6
v -0.2 0.3 -0.4
v -0.1 0.3 -0.4
v 0.2 0.3 -0.4
v 0.3 0.3 -0.4
v -0.2 0.3 -0.5
v -0.1 0.3 -0.5
v 0.2 0.3 -0.5
v 0.3 0.3 -0.5
v 0 2.3 -0.6
v 0.1 2.3 -0.6
v 0 2.3 -0.7
v 0.1 2.3 -0.7
v -0.2 2.4 -0.2
v -0.1 2.4 -0.2
v 0.2 2.4 -0.2
v 0.3 2.4 -0.2
v -0.2 2.4 -0.3
v -0.1 2.4 -0.3
v 0.2 2.4 -0.3
v 0.3 2.4 -0.3
v -0.1 2.4 -0.6
v 0 2.4 -0.6
v 0.1 2.4 -0.6
v 0.2 2.4 -0.6
v -0.1 2.4 -0.7
v 0 2.4 -0.7
v 0.1 2.4 -0.7
v 0.2 2.4 -0.7
v -0.1 2.5 0
v 0.2 2.5 0
v -0.1 2.5 -0.1
v 0.2 2.5 -0.1
v 0 2.6 0.1
v 0.1 2.6 0.1
v 0 2.6 0
v 0.1 2.6 0
v 0 2.6 -0.7
v 0.1 2.6 -0.7
v 0 2.6 -0.8
v 0.1 2.6 -0.8
v 0 0.3 0
v 0.1 0.3 0
v 0 0.3 -0.1
v 0.1 0.3 -0.1
v -0.2 0.4 -0.2
v -0.1 0.4 -0.2
v 0.2 0.4 -0.2
v 0.3 0.4 -0.2
v -0.2 0.4 -0.3
v -0.1 0.4 -0.3
v 0.2 0.4 -0.3
v 0.3 0.4 -0.3
v 0 2.8 0.1
v 0.1 2.8 0.1
v -0.1 2.8 0
v 0 2.8 0
v 0.1 2.8 0
v 0.2 2.8 0
v -0.2 2.8 -0.2
v -0.1 2.8 -0.2
v 0 2.8 -0.2
v 0.1 2.8 -0.2
v 0.2 2.8 -0.2
v 0.3 2.8 -0.2
v -0.2 2.8 -0.5
v -0.1 2.8 -0.5
v 0 2.8 -0.5
v 0.1 2.8 -0.5
v 0.2 2.8 -0.5
v 0.3 2.8 -0.5
v -0.1 2.8 -0.7
v 0 2.8 -0.7
v 0.1 2.8 -0.7
v 0.2 2.8 -0.7
v 0 2.8 -0.8
v 0.1 2.8 -0.8
v 0 4.4 0
v 0.1 4.4 0
v 0 4.4 -0.1
v 0.1 4.4 -0.1
v 0 4.4 -0.6
v 0.1 4.4 -0.6
v 0 4.4 -0.7
v 0.1 4.4 -0.7
v -0.1 5.2 -0.2
v 0 5.2 -0.2
v 0.1 5.2 -0.2
v 0.2 5.2 -0.2
v -0.1 5.2 -0.3
v 0 5.2 -0.3
v 0.1 5.2 -0.3
v 0.2 5.2 -0.3
v -0.1 5.2 -0.4
v 0 5.2 -0.4
v 0.1 5.2 -0.4
v 0.2 5.2 -0.4
v -0.1 5.2 -0.5
v 0 5.2 -0.5
v 0.1 5.2 -0.5
v 0.2 5.2 -0.5
v 0 5.7 -0.1
v 0.1 5.7 -0.1
v 0 5.7 -0.2
v 0.1 5.7 -0.2
v 0 5.7 -0.5
v 0.1 5.7 -0.5
v 0 5.7 -0.6
v 0.1 5.7 -0.6
v 0 6 -0.2
v 0.1 6 -0.2
v -0.1 6 -0.3
v 0 6 -0.3
v 0.1 6 -0.3
v 0.2 6 -0.3
v -0.1 6 -0.4
v 0 6 -0.4
v 0.1 6 -0.4
v 0.2 6 -0.4
v 0 6 -0.5
v 0.1 6 -0.5
v 0 6.1 -0.3
v 0.1 6.1 -0.3
v 0 6.1 -0.4
v 0.1 6.1 -0.4

# faces
f 3/1/1 2/1/1 1/1/1
f 5/1/1 3/1/1 1/1/1
f 5/1/1 4/1/1 3/1/1
f 6/1/1 4/1/1 5/1/1
f 8/1/1 4/1/1 6/1/1
f 9/1/1 8/1/1 7/1/1
f 10/1/1 4/1/1 8/1/1
f 10/1/1 8/1/1 9/1/1
f 13/1/1 12/1/1 11/1/1
f 15/1/1 13/1/1 11/1/1
f 15/1/1 14/1/1 13/1/1
f 16/1/1 14/1/1 15/1/1
f 17/1/1 14/1/1 16/1/1
f 19/1/1 18/1/1 17/1/1
f 19/1/1 17/1/1 16/1/1
f 20/1/1 18/1/1 19/1/1
f 21/1/1 15/1/1 11/1/1
f 23/1/1 21/1/1 11/1/1
f 23/1/1 22/1/1 21/1/1
f 24/1/1 22/1/1 23/1/1
f 25/1/1 18/1/1 20/1/1
f 28/1/1 23/1/1 11/1/1
f 29/1/1 28/1/1 27/1/1
f 30/1/1 23/1/1 28/1/1
f 30/1/1 28/1/1 29/1/1
f 31/1/1 26/1/1 25/1/1
f 31/1/1 25/1/1 20/1/1
f 32/1/1 26/1/1 31/1/1
f 33/2/1 31/2/1 30/2/1
f 34/2/1 31/2/1 33/2/1
f 35/2/1 31/2/1 34/2/1
f 36/2/1 31/2/1 35/2/1
f 37/2/1 35/2/1 34/2/1
f 38/2/1 35/2/1 37/2/1
f 41/1/1 40/1/1 39/1/1
f 42/1/1 40/1/1 41/1/1
f 45/1/1 44/1/1 43/1/1
f 46/1/1 44/1/1 45/1/1
f 51/1/1 48/1/1 47/1/1
f 52/1/1 48/1/1 51/1/1
f 55/1/1 50/1/1 49/1/1
f 56/1/1 50/1/1 55/1/1
f 57/2/1 53/2/1 52/2/1
f 58/2/1 53/2/1 57/2/1
f 59/2/1 55/2/1 54/2/1
f 60/2/1 55/2/1 59/2/1
f 61/2/1 53/2/1 58/2/1
f 64/2/1 59/2/1 54/2/1
f 65/2/1 62/2/1 61/2/1
f 65/2/1 61/2/1 58/2/1
f 66/2/1 62/2/1 65/2/1
f 67/2/1 64/2/1 63/2/1
f 67/2/1 59/2/1 64/2/1
f 68/2/1 59/2/1 67/2/1
f 69/2/1 62/2/1 66/2/1
f 70/2/1 62/2/1 69/2/1
f 71/2/1 67/2/1 63/2/1
f 72/2/1 67/2/1 71/2/1
f 73/2/1 71/2/1 70/2/1
f 74/2/1 71/2/1 73/2/1
f 75/1/2 76/1/2 77/1/2
f 77/1/2 76/1/2 78/1/2
f 79/1/2 80/1/2 81/1/2
f 81/1/2 80/1/2 82/1/2
f 83/1/2 84/1/2 87/1/2
f 87/1/2 84/1/2 88/1/2
f 85/1/2 86/1/2 91/1/2
f 91/1/2 86/1/2 92/1/2
f 88/2/2 89/2/2 93/2/2
f 93/2/2 89/2/2 94/2/2
f 90/2/2 91/2/2 95/2/2
f 95/2/2 91/2/2 96/2/2
f 94/2/2 89/2/2 97/2/2
f 90/2/2 95/2/2 100/2/2
f 97/2/2 98/2/2 101/2/2
f 94/2/2 97/2/2 101/2/2
f 101/2/2 98/2/2 102/2/2
f 99/2/2 100/2/2 103/2/2
f 100/2/2 95/2/2 103/2/2
f 103/2/2 95/2/2 104/2/2
f 102/2/2 98/2/2 105/2/2
f 105/2/2 98/2/2 106/2/2
f 99/2/2 103/2/2 107/2/2
f 107/2/2 103/2/2 108/2/2
f 106/2/2 107/2/2 109/2/2
f 109/2/2 107/2/2 110/2/2
f 111/1/2 112/1/2 113/1/2
f 111/1/2 113/1/2 115/1/2
f 113/1/2 114/1/2 115/1/2
f 115/1/2 114/1/2 116/1/2
f 116/1/2 114/1/2 117/1/2
f 117/1/2 118/1/2 119/1/2
f 116/1/2 117/1/2 119/1/2
f 119/1/2 118/1/2 120/1/2
f 111/1/2 115/1/2 121/1/2
f 111/1/2 121/1/2 123/1/2
f 121/1/2 122/1/2 123/1/2
f 123/1/2 122/1/2 124/1/2
f 120/1/2 118/1/2 125/1/2
f 111/1/2 123/1/2 128/1/2
f 127/1/2 128/1/2 129/1/2
f 128/1/2 123/1/2 130/1/2
f 129/1/2 128/1/2 130/1/2
f 125/1/2 126/1/2 131/1/2
f 120/1/2 125/1/2 131/1/2
f 131/1/2 126/1/2 132/1/2
f 130/2/2 131/2/2 133/2/2
f 133/2/2 131/2/2 134/2/2
f 134/2/2 131/2/2 135/2/2
f 135/2/2 131/2/2 136/2/2
f 134/2/2 135/2/2 137/2/2
f 137/2/2 135/2/2 138/2/2
f 139/1/2 140/1/2 141/1/2
f 139/1/2 141/1/2 143/1/2
f 141/1/2 142/1/2 143/1/2
f 143/1/2 142/1/2 144/1/2
f 144/1/2 142/1/2 146/1/2
f 145/1/2 146/1/2 147/1/2
f 146/1/2 142/1/2 148/1/2
f 147/1/2 146/1/2 148/1/2
f 151/1/3 150/1/3 149/1/3
f 152/1/3 150/1/3 151/1/3
f 157/1/3 154/1/3 153/1/3
f 158/1/3 154/1/3 157/1/3
f 160/1/3 156/1/3 155/1/3
f 161/1/3 156/1/3 160/1/3
f 162/1/3 157/1/3 153/1/3
f 163/2/3 159/2/3 158/2/3
f 164/2/3 159/2/3 163/2/3
f 165/1/3 162/1/3 153/1/3
f 165/1/3 163/1/3 162/1/3
f 166/1/3 163/1/3 165/1/3
f 169/1/3 168/1/3 167/1/3
f 170/1/3 168/1/3 169/1/3
f 173/1/3 169/1/3 167/1/3
f 174/1/3 168/1/3 170/1/3
f 175/2/3 172/2/3 171/2/3
f 176/2/3 172/2/3 175/2/3
f 177/1/3 174/1/3 173/1/3
f 177/1/3 173/1/3 167/1/3
f 178/1/3 168/1/3 174/1/3
f 178/1/3 174/1/3 177/1/3
f 183/1/3 180/1/3 179/1/3
f 184/1/3 180/1/3 183/1/3
f 185/1/3 182/1/3 181/1/3
f 186/1/3 182/1/3 185/1/3
f 188/2/3 187/2/3 186/2/3
f 189/2/3 187/2/3 188/2/3
f 194/2/3 191/2/3 190/2/3
f 195/2/3 191/2/3 194/2/3
f 199/2/3 193/2/3 192/2/3
f 200/2/3 193/2/3 199/2/3
f 201/1/3 197/1/3 196/1/3
f 202/1/3 197/1/3 201/1/3
f 203/1/3 199/1/3 198/1/3
f 204/1/3 199/1/3 203/1/3
f 207/1/3 206/1/3 205/1/3
f 208/1/3 206/1/3 207/1/3
f 211/2/3 210/2/3 209/2/3
f 212/2/3 210/2/3 211/2/3
f 215/2/3 213/2/3 212/2/3
f 216/2/3 213/2/3 215/2/3
f 219/2/3 215/2/3 214/2/3
f 220/2/3 215/2/3 219/2/3
f 221/1/3 218/1/3 217/1/3
f 222/1/3 218/1/3 221/1/3
f 223/1/4 224/1/4 227/1/4
f 227/1/4 224/1/4 228/1/4
f 229/2/4 230/2/4 231/2/4
f 231/2/4 230/2/4 232/2/4
f 232/2/4 233/2/4 235/2/4
f 235/2/4 233/2/4 236/2/4
f 225/1/4 226/1/4 237/1/4
f 237/1/4 226/1/4 238/1/4
f 234/2/4 235/2/4 241/2/4
f 241/2/4 235/2/4 242/2/4
f 239/1/4 240/1/4 243/1/4
f 243/1/4 240/1/4 244/1/4
f 245/1/4 246/1/4 249/1/4
f 249/1/4 246/1/4 250/1/4
f 250/2/4 251/2/4 252/2/4
f 252/2/4 251/2/4 253/2/4
f 254/2/4 255/2/4 258/2/4
f 258/2/4 255/2/4 259/2/4
f 247/1/4 248/1/4 260/1/4
f 260/1/4 248/1/4 261/1/4
f 256/2/4 257/2/4 263/2/4
f 263/2/4 257/2/4 264/2/4
f 262/1/4 263/1/4 265/1/4
f 265/1/4 263/1/4 266/1/4
f 267/1/4 268/1/4 269/1/4
f 269/1/4 268/1/4 270/1/4
f 267/1/4 269/1/4 273/1/4
f 271/2/4 272/2/4 275/2/4
f 275/2/4 272/2/4 276/2/4
f 273/1/4 274/1/4 277/1/4
f 267/1/4 273/1/4 277/1/4
f 277/1/4 274/1/4 278/1/4
f 279/1/4 280/1/4 282/1/4
f 282/1/4 280/1/4 283/1/4
f 283/1/4 280/1/4 284/1/4
f 281/1/4 282/1/4 286/1/4
f 282/1/4 283/1/4 286/1/4
f 286/1/4 283/1/4 287/1/4
f 287/1/4 283/1/4 288/1/4
f 284/2/4 285/2/4 289/2/4
f 289/2/4 285/2/4 290/2/4
f 287/1/4 288/1/4 291/1/4
f 288/1/4 289/1/4 291/1/4
f 291/1/4 289/1/4 292/1/4
f 293/1/4 294/1/4 295/1/4
f 295/1/4 294/1/4 296/1/4
f 299/1/5 298/1/5 297/1/5
f 300/1/5 298/1/5 299/1/5
f 303/1/5 302/1/5 301/1/5
f 304/1/5 302/1/5 303/1/5
f 307/1/5 306/1/5 305/1/5
f 308/1/5 306/1/5 307/1/5
f 313/1/5 310/1/5 309/1/5
f 314/1/5 310/1/5 313/1/5
f 315/1/5 312/1/5 311/1/5
f 316/1/5 312/1/5 315/1/5
f 319/1/5 318/1/5 317/1/5
f 320/1/5 318/1/5 319/1/5
f 325/1/5 322/1/5 321/1/5
f 326/1/5 322/1/5 325/1/5
f 327/1/5 324/1/5 323/1/5
f 328/1/5 324/1/5 327/1/5
f 331/1/5 330/1/5 329/1/5
f 332/1/5 330/1/5 331/1/5
f 337/1/5 334/1/5 333/1/5
f 338/1/5 334/1/5 337/1/5
f 339/1/5 336/1/5 335/1/5
f 340/1/5 336/1/5 339/1/5
f 345/1/5 342/1/5 341/1/5
f 346/1/5 342/1/5 345/1/5
f 347/1/5 344/1/5 343/1/5
f 348/1/5 344/1/5 347/1/5
f 351/1/5 350/1/5 349/1/5
f 352/1/5 350/1/5 351/1/5
f 355/1/5 354/1/5 353/1/5
f 356/1/5 354/1/5 355/1/5
f 359/1/5 358/1/5 357/1/5
f 360/1/5 358/1/5 359/1/5
f 361/1/6 362/1/6 363/1/6
f 363/1/6 362/1/6 364/1/6
f 365/1/6 366/1/6 369/1/6
f 369/1/6 366/1/6 370/1/6
f 367/1/6 368/1/6 371/1/6
f 371/1/6 368/1/6 372/1/6
f 373/1/6 374/1/6 376/1/6
f 376/1/6 374/1/6 377/1/6
f 375/1/6 376/1/6 380/1/6
f 380/1/6 376/1/6 381/1/6
f 377/1/6 378/1/6 382/1/6
f 382/1/6 378/1/6 383/1/6
f 379/1/6 380/1/6 385/1/6
f 385/1/6 380/1/6 386/1/6
f 383/1/6 384/1/6 389/1/6
f 389/1/6 384/1/6 390/1/6
f 386/1/6 387/1/6 391/1/6
f 391/1/6 387/1/6 392/1/6
f 388/1/6 389/1/6 393/1/6
f 393/1/6 389/1/6 394/1/6
f 392/1/6 393/1/6 395/1/6
f 395/1/6 393/1/6 396/1/6
f 397/2/6 398/2/6 399/2/6
f 399/2/6 398/2/6 400/2/6
f 401/2/6 402/2/6 403/2/6
f 403/2/6 402/2/6 404/2/6
f 405/2/6 406/2/6 409/2/6
f 409/2/6 406/2/6 410/2/6
f 407/2/6 408/2/6 411/2/6
f 411/2/6 408/2/6 412/2/6
f 413/2/6 414/2/6 417/2/6
f 417/2/6 414/2/6 418/2/6
f 415/2/6 416/2/6 419/2/6
f 419/2/6 416/2/6 420/2/6
f 421/2/6 422/2/6 423/2/6
f 423/2/6 422/2/6 424/2/6
f 425/2/6 426/2/6 427/2/6
f 427/2/6 426/2/6 428/2/6
f 429/2/6 430/2/6 432/2/6
f 432/2/6 430/2/6 433/2/6
f 431/2/6 432/2/6 435/2/6
f 435/2/6 432/2/6 436/2/6
f 433/2/6 434/2/6 437/2/6
f 437/2/6 434/2/6 438/2/6
f 436/2/6 437/2/6 439/2/6
f 439/2/6 437/2/6 440/2/6
f 441/2/6 442/2/6 443/2/6
f 443/2/6 442/2/6 444/2/6
