# MagicaVoxel @ Ephtracy

# group
o 

# material
mtllib HangarDoor.mtl
usemtl palette

# normals
vn -1 0 0
vn 1 0 0
vn 0 0 1
vn 0 0 -1
vn 0 -1 0
vn 0 1 0

# texcoords
vt 0.982422 0.5
vt 0.986328 0.5
vt 0.990234 0.5

# verts
v -6 0 0.1
v -6 0 -0.1
v -6 8 0.1
v -6 8 -0.1
v 5.8 0 0.1
v 5.8 0 0
v 5.8 7.9 0.1
v 5.8 7.9 0
v -5.9 0 0.1
v -5.9 0 0
v -5.9 7.9 0.1
v -5.9 7.9 0
v 6 0 0.1
v 6 0 -0.1
v 6 8 0.1
v 6 8 -0.1
v -6 0 0.1
v -6 8 0.1
v -5.9 0 0.1
v -5.9 7.9 0.1
v 5.8 0 0.1
v 5.8 7.9 0.1
v 6 0 0.1
v 6 8 0.1
v -5.9 0 0
v -5.9 7.9 0
v -5.6 0 0
v -5.6 7.9 0
v -5.3 0 0
v -5.3 7.9 0
v -5 0 0
v -5 7.9 0
v -4.7 0 0
v -4.7 7.9 0
v -4.4 0 0
v -4.4 7.9 0
v -4.1 0 0
v -4.1 7.9 0
v -3.8 0 0
v -3.8 7.9 0
v -3.5 0 0
v -3.5 7.9 0
v -3.2 0 0
v -3.2 7.9 0
v -2.9 0 0
v -2.9 7.9 0
v -2.6 0 0
v -2.6 7.9 0
v -2.3 0 0
v -2.3 7.9 0
v -2 0 0
v -2 7.9 0
v -1.7 0 0
v -1.7 7.9 0
v -1.4 0 0
v -1.4 7.9 0
v -1.1 0 0
v -1.1 7.9 0
v -0.8 0 0
v -0.8 7.9 0
v -0.5 0 0
v -0.5 7.9 0
v -0.2 0 0
v -0.2 7.9 0
v 0.2 0 0
v 0.2 7.9 0
v 0.5 0 0
v 0.5 7.9 0
v 0.8 0 0
v 0.8 7.9 0
v 1.1 0 0
v 1.1 7.9 0
v 1.4 0 0
v 1.4 7.9 0
v 1.7 0 0
v 1.7 7.9 0
v 2 0 0
v 2 7.9 0
v 2.3 0 0
v 2.3 7.9 0
v 2.6 0 0
v 2.6 7.9 0
v 2.9 0 0
v 2.9 7.9 0
v 3.2 0 0
v 3.2 7.9 0
v 3.5 0 0
v 3.5 7.9 0
v 3.8 0 0
v 3.8 7.9 0
v 4.1 0 0
v 4.1 7.9 0
v 4.4 0 0
v 4.4 7.9 0
v 4.7 0 0
v 4.7 7.9 0
v 5 0 0
v 5 7.9 0
v 5.3 0 0
v 5.3 7.9 0
v 5.6 0 0
v 5.6 7.9 0
v 5.8 0 0
v 5.8 7.9 0
v -6 0 -0.1
v -6 8 -0.1
v -5.9 0 -0.1
v -5.9 7.9 -0.1
v -5.6 0 -0.1
v -5.6 7.9 -0.1
v -5.3 0 -0.1
v -5.3 7.9 -0.1
v -5 0 -0.1
v -5 7.9 -0.1
v -4.7 0 -0.1
v -4.7 7.9 -0.1
v -4.4 0 -0.1
v -4.4 7.9 -0.1
v -4.1 0 -0.1
v -4.1 7.9 -0.1
v -3.8 0 -0.1
v -3.8 7.9 -0.1
v -3.5 0 -0.1
v -3.5 7.9 -0.1
v -3.2 0 -0.1
v -3.2 7.9 -0.1
v -2.9 0 -0.1
v -2.9 7.9 -0.1
v -2.6 0 -0.1
v -2.6 7.9 -0.1
v -2.3 0 -0.1
v -2.3 7.9 -0.1
v -2 0 -0.1
v -2 7.9 -0.1
v -1.7 0 -0.1
v -1.7 7.9 -0.1
v -1.4 0 -0.1
v -1.4 7.9 -0.1
v -1.1 0 -0.1
v -1.1 7.9 -0.1
v -0.8 0 -0.1
v -0.8 7.9 -0.1
v -0.5 0 -0.1
v -0.5 7.9 -0.1
v -0.2 0 -0.1
v -0.2 7.9 -0.1
v 0.2 0 -0.1
v 0.2 7.9 -0.1
v 0.5 0 -0.1
v 0.5 7.9 -0.1
v 0.8 0 -0.1
v 0.8 7.9 -0.1
v 1.1 0 -0.1
v 1.1 7.9 -0.1
v 1.4 0 -0.1
v 1.4 7.9 -0.1
v 1.7 0 -0.1
v 1.7 7.9 -0.1
v 2 0 -0.1
v 2 7.9 -0.1
v 2.3 0 -0.1
v 2.3 7.9 -0.1
v 2.6 0 -0.1
v 2.6 7.9 -0.1
v 2.9 0 -0.1
v 2.9 7.9 -0.1
v 3.2 0 -0.1
v 3.2 7.9 -0.1
v 3.5 0 -0.1
v 3.5 7.9 -0.1
v 3.8 0 -0.1
v 3.8 7.9 -0.1
v 4.1 0 -0.1
v 4.1 7.9 -0.1
v 4.4 0 -0.1
v 4.4 7.9 -0.1
v 4.7 0 -0.1
v 4.7 7.9 -0.1
v 5 0 -0.1
v 5 7.9 -0.1
v 5.3 0 -0.1
v 5.3 7.9 -0.1
v 5.6 0 -0.1
v 5.6 7.9 -0.1
v 5.9 0 -0.1
v 5.9 7.9 -0.1
v 6 0 -0.1
v 6 8 -0.1
v -6 0 0.1
v -5.9 0 0.1
v 5.8 0 0.1
v 6 0 0.1
v -5.9 0 0
v -5.6 0 0
v -5.3 0 0
v -5 0 0
v -4.7 0 0
v -4.4 0 0
v -4.1 0 0
v -3.8 0 0
v -3.5 0 0
v -3.2 0 0
v -2.9 0 0
v -2.6 0 0
v -2.3 0 0
v -2 0 0
v -1.7 0 0
v -1.4 0 0
v -1.1 0 0
v -0.8 0 0
v -0.5 0 0
v -0.2 0 0
v 0.2 0 0
v 0.5 0 0
v 0.8 0 0
v 1.1 0 0
v 1.4 0 0
v 1.7 0 0
v 2 0 0
v 2.3 0 0
v 2.6 0 0
v 2.9 0 0
v 3.2 0 0
v 3.5 0 0
v 3.8 0 0
v 4.1 0 0
v 4.4 0 0
v 4.7 0 0
v 5 0 0
v 5.3 0 0
v 5.6 0 0
v 5.8 0 0
v 5.9 0 0
v -6 0 -0.1
v -5.9 0 -0.1
v -5.6 0 -0.1
v -5.3 0 -0.1
v -5 0 -0.1
v -4.7 0 -0.1
v -4.4 0 -0.1
v -4.1 0 -0.1
v -3.8 0 -0.1
v -3.5 0 -0.1
v -3.2 0 -0.1
v -2.9 0 -0.1
v -2.6 0 -0.1
v -2.3 0 -0.1
v -2 0 -0.1
v -1.7 0 -0.1
v -1.4 0 -0.1
v -1.1 0 -0.1
v -0.8 0 -0.1
v -0.5 0 -0.1
v -0.2 0 -0.1
v 0.2 0 -0.1
v 0.5 0 -0.1
v 0.8 0 -0.1
v 1.1 0 -0.1
v 1.4 0 -0.1
v 1.7 0 -0.1
v 2 0 -0.1
v 2.3 0 -0.1
v 2.6 0 -0.1
v 2.9 0 -0.1
v 3.2 0 -0.1
v 3.5 0 -0.1
v 3.8 0 -0.1
v 4.1 0 -0.1
v 4.4 0 -0.1
v 4.7 0 -0.1
v 5 0 -0.1
v 5.3 0 -0.1
v 5.6 0 -0.1
v 5.9 0 -0.1
v 6 0 -0.1
v -5.9 7.9 0.1
v 5.8 7.9 0.1
v -5.9 7.9 0
v -5.6 7.9 0
v -5.3 7.9 0
v -5 7.9 0
v -4.7 7.9 0
v -4.4 7.9 0
v -4.1 7.9 0
v -3.8 7.9 0
v -3.5 7.9 0
v -3.2 7.9 0
v -2.9 7.9 0
v -2.6 7.9 0
v -2.3 7.9 0
v -2 7.9 0
v -1.7 7.9 0
v -1.4 7.9 0
v -1.1 7.9 0
v -0.8 7.9 0
v -0.5 7.9 0
v -0.2 7.9 0
v 0.2 7.9 0
v 0.5 7.9 0
v 0.8 7.9 0
v 1.1 7.9 0
v 1.4 7.9 0
v 1.7 7.9 0
v 2 7.9 0
v 2.3 7.9 0
v 2.6 7.9 0
v 2.9 7.9 0
v 3.2 7.9 0
v 3.5 7.9 0
v 3.8 7.9 0
v 4.1 7.9 0
v 4.4 7.9 0
v 4.7 7.9 0
v 5 7.9 0
v 5.3 7.9 0
v 5.6 7.9 0
v 5.8 7.9 0
v -6 8 0.1
v 6 8 0.1
v -6 8 -0.1
v 6 8 -0.1

# faces
f 3/3/1 2/3/1 1/3/1
f 4/3/1 2/3/1 3/3/1
f 7/3/1 6/3/1 5/3/1
f 8/3/1 6/3/1 7/3/1
f 9/3/2 10/3/2 11/3/2
f 11/3/2 10/3/2 12/3/2
f 13/3/2 14/3/2 15/3/2
f 15/3/2 14/3/2 16/3/2
f 19/3/3 18/3/3 17/3/3
f 20/3/3 18/3/3 19/3/3
f 22/3/3 18/3/3 20/3/3
f 23/3/3 22/3/3 21/3/3
f 24/3/3 18/3/3 22/3/3
f 24/3/3 22/3/3 23/3/3
f 27/2/3 26/2/3 25/2/3
f 28/2/3 26/2/3 27/2/3
f 29/1/3 28/1/3 27/1/3
f 30/1/3 28/1/3 29/1/3
f 31/2/3 30/2/3 29/2/3
f 32/2/3 30/2/3 31/2/3
f 33/1/3 32/1/3 31/1/3
f 34/1/3 32/1/3 33/1/3
f 35/2/3 34/2/3 33/2/3
f 36/2/3 34/2/3 35/2/3
f 37/1/3 36/1/3 35/1/3
f 38/1/3 36/1/3 37/1/3
f 39/2/3 38/2/3 37/2/3
f 40/2/3 38/2/3 39/2/3
f 41/1/3 40/1/3 39/1/3
f 42/1/3 40/1/3 41/1/3
f 43/2/3 42/2/3 41/2/3
f 44/2/3 42/2/3 43/2/3
f 45/1/3 44/1/3 43/1/3
f 46/1/3 44/1/3 45/1/3
f 47/2/3 46/2/3 45/2/3
f 48/2/3 46/2/3 47/2/3
f 49/1/3 48/1/3 47/1/3
f 50/1/3 48/1/3 49/1/3
f 51/2/3 50/2/3 49/2/3
f 52/2/3 50/2/3 51/2/3
f 53/1/3 52/1/3 51/1/3
f 54/1/3 52/1/3 53/1/3
f 55/2/3 54/2/3 53/2/3
f 56/2/3 54/2/3 55/2/3
f 57/1/3 56/1/3 55/1/3
f 58/1/3 56/1/3 57/1/3
f 59/2/3 58/2/3 57/2/3
f 60/2/3 58/2/3 59/2/3
f 61/1/3 60/1/3 59/1/3
f 62/1/3 60/1/3 61/1/3
f 63/2/3 62/2/3 61/2/3
f 64/2/3 62/2/3 63/2/3
f 65/1/3 64/1/3 63/1/3
f 66/1/3 64/1/3 65/1/3
f 67/2/3 66/2/3 65/2/3
f 68/2/3 66/2/3 67/2/3
f 69/1/3 68/1/3 67/1/3
f 70/1/3 68/1/3 69/1/3
f 71/2/3 70/2/3 69/2/3
f 72/2/3 70/2/3 71/2/3
f 73/1/3 72/1/3 71/1/3
f 74/1/3 72/1/3 73/1/3
f 75/2/3 74/2/3 73/2/3
f 76/2/3 74/2/3 75/2/3
f 77/1/3 76/1/3 75/1/3
f 78/1/3 76/1/3 77/1/3
f 79/2/3 78/2/3 77/2/3
f 80/2/3 78/2/3 79/2/3
f 81/1/3 80/1/3 79/1/3
f 82/1/3 80/1/3 81/1/3
f 83/2/3 82/2/3 81/2/3
f 84/2/3 82/2/3 83/2/3
f 85/1/3 84/1/3 83/1/3
f 86/1/3 84/1/3 85/1/3
f 87/2/3 86/2/3 85/2/3
f 88/2/3 86/2/3 87/2/3
f 89/1/3 88/1/3 87/1/3
f 90/1/3 88/1/3 89/1/3
f 91/2/3 90/2/3 89/2/3
f 92/2/3 90/2/3 91/2/3
f 93/1/3 92/1/3 91/1/3
f 94/1/3 92/1/3 93/1/3
f 95/2/3 94/2/3 93/2/3
f 96/2/3 94/2/3 95/2/3
f 97/1/3 96/1/3 95/1/3
f 98/1/3 96/1/3 97/1/3
f 99/2/3 98/2/3 97/2/3
f 100/2/3 98/2/3 99/2/3
f 101/1/3 100/1/3 99/1/3
f 102/1/3 100/1/3 101/1/3
f 103/2/3 102/2/3 101/2/3
f 104/2/3 102/2/3 103/2/3
f 105/3/4 106/3/4 107/3/4
f 107/3/4 106/3/4 108/3/4
f 107/2/4 108/2/4 109/2/4
f 108/3/4 106/3/4 110/3/4
f 109/2/4 108/2/4 110/2/4
f 109/1/4 110/1/4 111/1/4
f 110/3/4 106/3/4 112/3/4
f 111/1/4 110/1/4 112/1/4
f 111/2/4 112/2/4 113/2/4
f 112/3/4 106/3/4 114/3/4
f 113/2/4 112/2/4 114/2/4
f 113/1/4 114/1/4 115/1/4
f 114/3/4 106/3/4 116/3/4
f 115/1/4 114/1/4 116/1/4
f 115/2/4 116/2/4 117/2/4
f 116/3/4 106/3/4 118/3/4
f 117/2/4 116/2/4 118/2/4
f 117/1/4 118/1/4 119/1/4
f 118/3/4 106/3/4 120/3/4
f 119/1/4 118/1/4 120/1/4
f 119/2/4 120/2/4 121/2/4
f 120/3/4 106/3/4 122/3/4
f 121/2/4 120/2/4 122/2/4
f 121/1/4 122/1/4 123/1/4
f 122/3/4 106/3/4 124/3/4
f 123/1/4 122/1/4 124/1/4
f 123/2/4 124/2/4 125/2/4
f 124/3/4 106/3/4 126/3/4
f 125/2/4 124/2/4 126/2/4
f 125/1/4 126/1/4 127/1/4
f 126/3/4 106/3/4 128/3/4
f 127/1/4 126/1/4 128/1/4
f 127/2/4 128/2/4 129/2/4
f 128/3/4 106/3/4 130/3/4
f 129/2/4 128/2/4 130/2/4
f 129/1/4 130/1/4 131/1/4
f 130/3/4 106/3/4 132/3/4
f 131/1/4 130/1/4 132/1/4
f 131/2/4 132/2/4 133/2/4
f 132/3/4 106/3/4 134/3/4
f 133/2/4 132/2/4 134/2/4
f 133/1/4 134/1/4 135/1/4
f 134/3/4 106/3/4 136/3/4
f 135/1/4 134/1/4 136/1/4
f 135/2/4 136/2/4 137/2/4
f 136/3/4 106/3/4 138/3/4
f 137/2/4 136/2/4 138/2/4
f 137/1/4 138/1/4 139/1/4
f 138/3/4 106/3/4 140/3/4
f 139/1/4 138/1/4 140/1/4
f 139/2/4 140/2/4 141/2/4
f 140/3/4 106/3/4 142/3/4
f 141/2/4 140/2/4 142/2/4
f 141/1/4 142/1/4 143/1/4
f 142/3/4 106/3/4 144/3/4
f 143/1/4 142/1/4 144/1/4
f 143/2/4 144/2/4 145/2/4
f 144/3/4 106/3/4 146/3/4
f 145/2/4 144/2/4 146/2/4
f 145/1/4 146/1/4 147/1/4
f 146/3/4 106/3/4 148/3/4
f 147/1/4 146/1/4 148/1/4
f 147/2/4 148/2/4 149/2/4
f 148/3/4 106/3/4 150/3/4
f 149/2/4 148/2/4 150/2/4
f 149/1/4 150/1/4 151/1/4
f 150/3/4 106/3/4 152/3/4
f 151/1/4 150/1/4 152/1/4
f 151/2/4 152/2/4 153/2/4
f 152/3/4 106/3/4 154/3/4
f 153/2/4 152/2/4 154/2/4
f 153/1/4 154/1/4 155/1/4
f 154/3/4 106/3/4 156/3/4
f 155/1/4 154/1/4 156/1/4
f 155/2/4 156/2/4 157/2/4
f 156/3/4 106/3/4 158/3/4
f 157/2/4 156/2/4 158/2/4
f 157/1/4 158/1/4 159/1/4
f 158/3/4 106/3/4 160/3/4
f 159/1/4 158/1/4 160/1/4
f 159/2/4 160/2/4 161/2/4
f 160/3/4 106/3/4 162/3/4
f 161/2/4 160/2/4 162/2/4
f 161/1/4 162/1/4 163/1/4
f 162/3/4 106/3/4 164/3/4
f 163/1/4 162/1/4 164/1/4
f 163/2/4 164/2/4 165/2/4
f 164/3/4 106/3/4 166/3/4
f 165/2/4 164/2/4 166/2/4
f 165/1/4 166/1/4 167/1/4
f 166/3/4 106/3/4 168/3/4
f 167/1/4 166/1/4 168/1/4
f 167/2/4 168/2/4 169/2/4
f 168/3/4 106/3/4 170/3/4
f 169/2/4 168/2/4 170/2/4
f 169/1/4 170/1/4 171/1/4
f 170/3/4 106/3/4 172/3/4
f 171/1/4 170/1/4 172/1/4
f 171/2/4 172/2/4 173/2/4
f 172/3/4 106/3/4 174/3/4
f 173/2/4 172/2/4 174/2/4
f 173/1/4 174/1/4 175/1/4
f 174/3/4 106/3/4 176/3/4
f 175/1/4 174/1/4 176/1/4
f 175/2/4 176/2/4 177/2/4
f 176/3/4 106/3/4 178/3/4
f 177/2/4 176/2/4 178/2/4
f 177/1/4 178/1/4 179/1/4
f 178/3/4 106/3/4 180/3/4
f 179/1/4 178/1/4 180/1/4
f 179/2/4 180/2/4 181/2/4
f 180/3/4 106/3/4 182/3/4
f 181/2/4 180/2/4 182/2/4
f 181/1/4 182/1/4 183/1/4
f 182/3/4 106/3/4 184/3/4
f 183/1/4 182/1/4 184/1/4
f 183/2/4 184/2/4 185/2/4
f 184/3/4 106/3/4 186/3/4
f 185/2/4 184/2/4 186/2/4
f 185/3/4 186/3/4 187/3/4
f 186/3/4 106/3/4 188/3/4
f 187/3/4 186/3/4 188/3/4
f 193/3/5 190/3/5 189/3/5
f 232/3/5 192/3/5 191/3/5
f 233/3/5 192/3/5 232/3/5
f 234/3/5 193/3/5 189/3/5
f 235/2/5 194/2/5 193/2/5
f 235/3/5 193/3/5 234/3/5
f 236/1/5 195/1/5 194/1/5
f 236/2/5 194/2/5 235/2/5
f 237/2/5 196/2/5 195/2/5
f 237/1/5 195/1/5 236/1/5
f 238/1/5 197/1/5 196/1/5
f 238/2/5 196/2/5 237/2/5
f 239/2/5 198/2/5 197/2/5
f 239/1/5 197/1/5 238/1/5
f 240/1/5 199/1/5 198/1/5
f 240/2/5 198/2/5 239/2/5
f 241/2/5 200/2/5 199/2/5
f 241/1/5 199/1/5 240/1/5
f 242/1/5 201/1/5 200/1/5
f 242/2/5 200/2/5 241/2/5
f 243/2/5 202/2/5 201/2/5
f 243/1/5 201/1/5 242/1/5
f 244/1/5 203/1/5 202/1/5
f 244/2/5 202/2/5 243/2/5
f 245/2/5 204/2/5 203/2/5
f 245/1/5 203/1/5 244/1/5
f 246/1/5 205/1/5 204/1/5
f 246/2/5 204/2/5 245/2/5
f 247/2/5 206/2/5 205/2/5
f 247/1/5 205/1/5 246/1/5
f 248/1/5 207/1/5 206/1/5
f 248/2/5 206/2/5 247/2/5
f 249/2/5 208/2/5 207/2/5
f 249/1/5 207/1/5 248/1/5
f 250/1/5 209/1/5 208/1/5
f 250/2/5 208/2/5 249/2/5
f 251/2/5 210/2/5 209/2/5
f 251/1/5 209/1/5 250/1/5
f 252/1/5 211/1/5 210/1/5
f 252/2/5 210/2/5 251/2/5
f 253/2/5 212/2/5 211/2/5
f 253/1/5 211/1/5 252/1/5
f 254/1/5 213/1/5 212/1/5
f 254/2/5 212/2/5 253/2/5
f 255/2/5 214/2/5 213/2/5
f 255/1/5 213/1/5 254/1/5
f 256/1/5 215/1/5 214/1/5
f 256/2/5 214/2/5 255/2/5
f 257/2/5 216/2/5 215/2/5
f 257/1/5 215/1/5 256/1/5
f 258/1/5 217/1/5 216/1/5
f 258/2/5 216/2/5 257/2/5
f 259/2/5 218/2/5 217/2/5
f 259/1/5 217/1/5 258/1/5
f 260/1/5 219/1/5 218/1/5
f 260/2/5 218/2/5 259/2/5
f 261/2/5 220/2/5 219/2/5
f 261/1/5 219/1/5 260/1/5
f 262/1/5 221/1/5 220/1/5
f 262/2/5 220/2/5 261/2/5
f 263/2/5 222/2/5 221/2/5
f 263/1/5 221/1/5 262/1/5
f 264/1/5 223/1/5 222/1/5
f 264/2/5 222/2/5 263/2/5
f 265/2/5 224/2/5 223/2/5
f 265/1/5 223/1/5 264/1/5
f 266/1/5 225/1/5 224/1/5
f 266/2/5 224/2/5 265/2/5
f 267/2/5 226/2/5 225/2/5
f 267/1/5 225/1/5 266/1/5
f 268/1/5 227/1/5 226/1/5
f 268/2/5 226/2/5 267/2/5
f 269/2/5 228/2/5 227/2/5
f 269/1/5 227/1/5 268/1/5
f 270/1/5 229/1/5 228/1/5
f 270/2/5 228/2/5 269/2/5
f 271/2/5 230/2/5 229/2/5
f 271/1/5 229/1/5 270/1/5
f 272/1/5 231/1/5 230/1/5
f 272/2/5 230/2/5 271/2/5
f 273/2/5 232/2/5 231/2/5
f 273/1/5 231/1/5 272/1/5
f 273/2/5 233/2/5 232/2/5
f 274/3/5 192/3/5 233/3/5
f 274/2/5 233/2/5 273/2/5
f 275/3/5 192/3/5 274/3/5
f 278/3/5 277/3/5 276/3/5
f 279/3/5 277/3/5 278/3/5
f 280/3/5 277/3/5 279/3/5
f 281/3/5 277/3/5 280/3/5
f 282/3/5 277/3/5 281/3/5
f 283/3/5 277/3/5 282/3/5
f 284/3/5 277/3/5 283/3/5
f 285/3/5 277/3/5 284/3/5
f 286/3/5 277/3/5 285/3/5
f 287/3/5 277/3/5 286/3/5
f 288/3/5 277/3/5 287/3/5
f 289/3/5 277/3/5 288/3/5
f 290/3/5 277/3/5 289/3/5
f 291/3/5 277/3/5 290/3/5
f 292/3/5 277/3/5 291/3/5
f 293/3/5 277/3/5 292/3/5
f 294/3/5 277/3/5 293/3/5
f 295/3/5 277/3/5 294/3/5
f 296/3/5 277/3/5 295/3/5
f 297/3/5 277/3/5 296/3/5
f 298/3/5 277/3/5 297/3/5
f 299/3/5 277/3/5 298/3/5
f 300/3/5 277/3/5 299/3/5
f 301/3/5 277/3/5 300/3/5
f 302/3/5 277/3/5 301/3/5
f 303/3/5 277/3/5 302/3/5
f 304/3/5 277/3/5 303/3/5
f 305/3/5 277/3/5 304/3/5
f 306/3/5 277/3/5 305/3/5
f 307/3/5 277/3/5 306/3/5
f 308/3/5 277/3/5 307/3/5
f 309/3/5 277/3/5 308/3/5
f 310/3/5 277/3/5 309/3/5
f 311/3/5 277/3/5 310/3/5
f 312/3/5 277/3/5 311/3/5
f 313/3/5 277/3/5 312/3/5
f 314/3/5 277/3/5 313/3/5
f 315/3/5 277/3/5 314/3/5
f 316/3/5 277/3/5 315/3/5
f 317/3/5 277/3/5 316/3/5
f 318/3/6 319/3/6 320/3/6
f 320/3/6 319/3/6 321/3/6
