# MagicaVoxel @ Ephtracy

# group
o 

# material
mtllib Drawer.mtl
usemtl palette

# normals
vn -1 0 0
vn 1 0 0
vn 0 0 1
vn 0 0 -1
vn 0 -1 0
vn 0 1 0

# texcoords
vt 0.369141 0.5
vt 0.373047 0.5
vt 0.986328 0.5

# verts
v -2 3 1.3
v -2 3 -2
v -2 3.1 1.3
v -2 3.1 -2
v -1.9 0 1.1
v -1.9 0 -1.9
v -1.9 3 1.1
v -1.9 3 -1.9
v -1.8 0 1.2
v -1.8 0 1.1
v -1.8 0.7 1.2
v -1.8 0.7 1.1
v -1.8 0.8 1.2
v -1.8 0.8 1.1
v -1.8 1.5 1.2
v -1.8 1.5 1.1
v -1.8 1.6 1.2
v -1.8 1.6 1.1
v -1.8 2.3 1.2
v -1.8 2.3 1.1
v -1.8 2.4 1.2
v -1.8 2.4 1.1
v -1.8 3 1.2
v -1.8 3 1.1
v -0.3 0.2 1.3
v -0.3 0.2 1.2
v -0.3 0.3 1.3
v -0.3 0.3 1.2
v -0.3 1 1.3
v -0.3 1 1.2
v -0.3 1.1 1.3
v -0.3 1.1 1.2
v -0.3 1.8 1.3
v -0.3 1.8 1.2
v -0.3 1.9 1.3
v -0.3 1.9 1.2
v -0.3 2.6 1.3
v -0.3 2.6 1.2
v -0.3 2.7 1.3
v -0.3 2.7 1.2
v 1.4 1.5 -0.3
v 1.4 1.5 -0.4
v 1.4 1.6 -0.3
v 1.4 1.6 -0.4
v 0.3 0.2 1.3
v 0.3 0.2 1.2
v 0.3 0.3 1.3
v 0.3 0.3 1.2
v 0.3 1 1.3
v 0.3 1 1.2
v 0.3 1.1 1.3
v 0.3 1.1 1.2
v 0.3 1.8 1.3
v 0.3 1.8 1.2
v 0.3 1.9 1.3
v 0.3 1.9 1.2
v 0.3 2.6 1.3
v 0.3 2.6 1.2
v 0.3 2.7 1.3
v 0.3 2.7 1.2
v 1.3 1.5 -0.3
v 1.3 1.5 -0.4
v 1.3 1.6 -0.3
v 1.3 1.6 -0.4
v 1.8 0 1.2
v 1.8 0 1.1
v 1.8 0.7 1.2
v 1.8 0.7 1.1
v 1.8 0.8 1.2
v 1.8 0.8 1.1
v 1.8 1.5 1.2
v 1.8 1.5 1.1
v 1.8 1.6 1.2
v 1.8 1.6 1.1
v 1.8 2.3 1.2
v 1.8 2.3 1.1
v 1.8 2.4 1.2
v 1.8 2.4 1.1
v 1.8 3 1.2
v 1.8 3 1.1
v 1.9 0 1.1
v 1.9 0 -1.9
v 1.9 3 1.1
v 1.9 3 -1.9
v 2 3 1.3
v 2 3 -2
v 2 3.1 1.3
v 2 3.1 -2
v -2 3 1.3
v -2 3.1 1.3
v -0.3 0.2 1.3
v -0.3 0.3 1.3
v -0.3 1 1.3
v -0.3 1.1 1.3
v -0.3 1.8 1.3
v -0.3 1.9 1.3
v -0.3 2.6 1.3
v -0.3 2.7 1.3
v 0.3 0.2 1.3
v 0.3 0.3 1.3
v 0.3 1 1.3
v 0.3 1.1 1.3
v 0.3 1.8 1.3
v 0.3 1.9 1.3
v 0.3 2.6 1.3
v 0.3 2.7 1.3
v 2 3 1.3
v 2 3.1 1.3
v -1.8 0 1.2
v -1.8 0.7 1.2
v -1.8 0.8 1.2
v -1.8 1.5 1.2
v -1.8 1.6 1.2
v -1.8 2.3 1.2
v -1.8 2.4 1.2
v -1.8 3 1.2
v -0.3 0.2 1.2
v -0.3 0.3 1.2
v -0.3 1 1.2
v -0.3 1.1 1.2
v -0.3 1.8 1.2
v -0.3 1.9 1.2
v -0.3 2.6 1.2
v -0.3 2.7 1.2
v 0.3 0.2 1.2
v 0.3 0.3 1.2
v 0.3 1 1.2
v 0.3 1.1 1.2
v 0.3 1.8 1.2
v 0.3 1.9 1.2
v 0.3 2.6 1.2
v 0.3 2.7 1.2
v 1.8 0 1.2
v 1.8 0.7 1.2
v 1.8 0.8 1.2
v 1.8 1.5 1.2
v 1.8 1.6 1.2
v 1.8 2.3 1.2
v 1.8 2.4 1.2
v 1.8 3 1.2
v -1.9 0 1.1
v -1.9 3 1.1
v -1.8 0 1.1
v -1.8 0.7 1.1
v -1.8 0.8 1.1
v -1.8 1.5 1.1
v -1.8 1.6 1.1
v -1.8 2.3 1.1
v -1.8 2.4 1.1
v -1.8 3 1.1
v 1.8 0 1.1
v 1.8 0.7 1.1
v 1.8 0.8 1.1
v 1.8 1.5 1.1
v 1.8 1.6 1.1
v 1.8 2.3 1.1
v 1.8 2.4 1.1
v 1.8 3 1.1
v 1.9 0 1.1
v 1.9 3 1.1
v 1.3 1.5 -0.4
v 1.3 1.6 -0.4
v 1.4 1.5 -0.4
v 1.4 1.6 -0.4
v 1.3 1.5 -0.3
v 1.3 1.6 -0.3
v 1.4 1.5 -0.3
v 1.4 1.6 -0.3
v -1.9 0 -1.9
v -1.9 3 -1.9
v 1.9 0 -1.9
v 1.9 3 -1.9
v -2 3 -2
v -2 3.1 -2
v 2 3 -2
v 2 3.1 -2
v -1.8 0 1.2
v 1.8 0 1.2
v -1.9 0 1.1
v -1.8 0 1.1
v 1.8 0 1.1
v 1.9 0 1.1
v -1.9 0 -1.9
v 1.9 0 -1.9
v -0.3 0.2 1.3
v 0.3 0.2 1.3
v -0.3 0.2 1.2
v 0.3 0.2 1.2
v -1.8 0.8 1.2
v 1.8 0.8 1.2
v -1.8 0.8 1.1
v 1.8 0.8 1.1
v -0.3 1 1.3
v 0.3 1 1.3
v -0.3 1 1.2
v 0.3 1 1.2
v -1.8 1.6 1.2
v 1.8 1.6 1.2
v -1.8 1.6 1.1
v 1.8 1.6 1.1
v 1.3 1.6 -0.3
v 1.4 1.6 -0.3
v 1.3 1.6 -0.4
v 1.4 1.6 -0.4
v -0.3 1.8 1.3
v 0.3 1.8 1.3
v -0.3 1.8 1.2
v 0.3 1.8 1.2
v -1.8 2.4 1.2
v 1.8 2.4 1.2
v -1.8 2.4 1.1
v 1.8 2.4 1.1
v -0.3 2.6 1.3
v 0.3 2.6 1.3
v -0.3 2.6 1.2
v 0.3 2.6 1.2
v -2 3 1.3
v 2 3 1.3
v -1.8 3 1.2
v 1.8 3 1.2
v -1.9 3 1.1
v -1.8 3 1.1
v 1.8 3 1.1
v 1.9 3 1.1
v -1.9 3 -1.9
v 1.9 3 -1.9
v -2 3 -2
v 2 3 -2
v -0.3 0.3 1.3
v 0.3 0.3 1.3
v -0.3 0.3 1.2
v 0.3 0.3 1.2
v -1.8 0.7 1.2
v 1.8 0.7 1.2
v -1.8 0.7 1.1
v 1.8 0.7 1.1
v -0.3 1.1 1.3
v 0.3 1.1 1.3
v -0.3 1.1 1.2
v 0.3 1.1 1.2
v -1.8 1.5 1.2
v 1.8 1.5 1.2
v -1.8 1.5 1.1
v 1.8 1.5 1.1
v 1.3 1.5 -0.3
v 1.4 1.5 -0.3
v 1.3 1.5 -0.4
v 1.4 1.5 -0.4
v -0.3 1.9 1.3
v 0.3 1.9 1.3
v -0.3 1.9 1.2
v 0.3 1.9 1.2
v -1.8 2.3 1.2
v 1.8 2.3 1.2
v -1.8 2.3 1.1
v 1.8 2.3 1.1
v -0.3 2.7 1.3
v 0.3 2.7 1.3
v -0.3 2.7 1.2
v 0.3 2.7 1.2
v -2 3.1 1.3
v 2 3.1 1.3
v -2 3.1 -2
v 2 3.1 -2

# faces
f 3/1/1 2/1/1 1/1/1
f 4/1/1 2/1/1 3/1/1
f 7/2/1 6/2/1 5/2/1
f 8/2/1 6/2/1 7/2/1
f 11/2/1 10/2/1 9/2/1
f 12/2/1 10/2/1 11/2/1
f 15/2/1 14/2/1 13/2/1
f 16/2/1 14/2/1 15/2/1
f 19/2/1 18/2/1 17/2/1
f 20/2/1 18/2/1 19/2/1
f 23/2/1 22/2/1 21/2/1
f 24/2/1 22/2/1 23/2/1
f 27/3/1 26/3/1 25/3/1
f 28/3/1 26/3/1 27/3/1
f 31/3/1 30/3/1 29/3/1
f 32/3/1 30/3/1 31/3/1
f 35/3/1 34/3/1 33/3/1
f 36/3/1 34/3/1 35/3/1
f 39/3/1 38/3/1 37/3/1
f 40/3/1 38/3/1 39/3/1
f 43/2/1 42/2/1 41/2/1
f 44/2/1 42/2/1 43/2/1
f 45/3/2 46/3/2 47/3/2
f 47/3/2 46/3/2 48/3/2
f 49/3/2 50/3/2 51/3/2
f 51/3/2 50/3/2 52/3/2
f 53/3/2 54/3/2 55/3/2
f 55/3/2 54/3/2 56/3/2
f 57/3/2 58/3/2 59/3/2
f 59/3/2 58/3/2 60/3/2
f 61/2/2 62/2/2 63/2/2
f 63/2/2 62/2/2 64/2/2
f 65/2/2 66/2/2 67/2/2
f 67/2/2 66/2/2 68/2/2
f 69/2/2 70/2/2 71/2/2
f 71/2/2 70/2/2 72/2/2
f 73/2/2 74/2/2 75/2/2
f 75/2/2 74/2/2 76/2/2
f 77/2/2 78/2/2 79/2/2
f 79/2/2 78/2/2 80/2/2
f 81/2/2 82/2/2 83/2/2
f 83/2/2 82/2/2 84/2/2
f 85/1/2 86/1/2 87/1/2
f 87/1/2 86/1/2 88/1/2
f 99/3/3 92/3/3 91/3/3
f 100/3/3 92/3/3 99/3/3
f 101/3/3 94/3/3 93/3/3
f 102/3/3 94/3/3 101/3/3
f 103/3/3 96/3/3 95/3/3
f 104/3/3 96/3/3 103/3/3
f 105/3/3 98/3/3 97/3/3
f 106/3/3 98/3/3 105/3/3
f 107/1/3 90/1/3 89/1/3
f 108/1/3 90/1/3 107/1/3
f 117/2/3 110/2/3 109/2/3
f 118/2/3 110/2/3 117/2/3
f 119/2/3 112/2/3 111/2/3
f 120/2/3 112/2/3 119/2/3
f 121/2/3 114/2/3 113/2/3
f 122/2/3 114/2/3 121/2/3
f 123/2/3 116/2/3 115/2/3
f 124/2/3 116/2/3 123/2/3
f 125/2/3 117/2/3 109/2/3
f 126/2/3 110/2/3 118/2/3
f 127/2/3 119/2/3 111/2/3
f 128/2/3 112/2/3 120/2/3
f 129/2/3 121/2/3 113/2/3
f 130/2/3 114/2/3 122/2/3
f 131/2/3 123/2/3 115/2/3
f 132/2/3 116/2/3 124/2/3
f 133/2/3 125/2/3 109/2/3
f 133/2/3 126/2/3 125/2/3
f 134/2/3 110/2/3 126/2/3
f 134/2/3 126/2/3 133/2/3
f 135/2/3 127/2/3 111/2/3
f 135/2/3 128/2/3 127/2/3
f 136/2/3 112/2/3 128/2/3
f 136/2/3 128/2/3 135/2/3
f 137/2/3 129/2/3 113/2/3
f 137/2/3 130/2/3 129/2/3
f 138/2/3 114/2/3 130/2/3
f 138/2/3 130/2/3 137/2/3
f 139/2/3 132/2/3 131/2/3
f 139/2/3 131/2/3 115/2/3
f 140/2/3 116/2/3 132/2/3
f 140/2/3 132/2/3 139/2/3
f 143/2/3 142/2/3 141/2/3
f 144/2/3 142/2/3 143/2/3
f 145/2/3 142/2/3 144/2/3
f 146/2/3 142/2/3 145/2/3
f 147/2/3 142/2/3 146/2/3
f 148/2/3 142/2/3 147/2/3
f 149/2/3 142/2/3 148/2/3
f 150/2/3 142/2/3 149/2/3
f 152/2/3 145/2/3 144/2/3
f 153/2/3 145/2/3 152/2/3
f 154/2/3 147/2/3 146/2/3
f 155/2/3 147/2/3 154/2/3
f 156/2/3 149/2/3 148/2/3
f 157/2/3 149/2/3 156/2/3
f 159/2/3 153/2/3 152/2/3
f 159/2/3 158/2/3 157/2/3
f 159/2/3 157/2/3 156/2/3
f 159/2/3 156/2/3 155/2/3
f 159/2/3 155/2/3 154/2/3
f 159/2/3 154/2/3 153/2/3
f 159/2/3 152/2/3 151/2/3
f 160/2/3 158/2/3 159/2/3
f 163/2/3 162/2/3 161/2/3
f 164/2/3 162/2/3 163/2/3
f 165/2/4 166/2/4 167/2/4
f 167/2/4 166/2/4 168/2/4
f 169/2/4 170/2/4 171/2/4
f 171/2/4 170/2/4 172/2/4
f 173/1/4 174/1/4 175/1/4
f 175/1/4 174/1/4 176/1/4
f 180/2/5 178/2/5 177/2/5
f 181/2/5 178/2/5 180/2/5
f 183/2/5 180/2/5 179/2/5
f 183/2/5 182/2/5 181/2/5
f 183/2/5 181/2/5 180/2/5
f 184/2/5 182/2/5 183/2/5
f 187/3/5 186/3/5 185/3/5
f 188/3/5 186/3/5 187/3/5
f 191/2/5 190/2/5 189/2/5
f 192/2/5 190/2/5 191/2/5
f 195/3/5 194/3/5 193/3/5
f 196/3/5 194/3/5 195/3/5
f 199/2/5 198/2/5 197/2/5
f 200/2/5 198/2/5 199/2/5
f 203/2/5 202/2/5 201/2/5
f 204/2/5 202/2/5 203/2/5
f 207/3/5 206/3/5 205/3/5
f 208/3/5 206/3/5 207/3/5
f 211/2/5 210/2/5 209/2/5
f 212/2/5 210/2/5 211/2/5
f 215/3/5 214/3/5 213/3/5
f 216/3/5 214/3/5 215/3/5
f 219/1/5 218/1/5 217/1/5
f 220/1/5 218/1/5 219/1/5
f 221/1/5 219/1/5 217/1/5
f 222/1/5 219/1/5 221/1/5
f 223/1/5 218/1/5 220/1/5
f 224/1/5 218/1/5 223/1/5
f 225/1/5 221/1/5 217/1/5
f 226/1/5 218/1/5 224/1/5
f 227/1/5 225/1/5 217/1/5
f 227/1/5 226/1/5 225/1/5
f 228/1/5 218/1/5 226/1/5
f 228/1/5 226/1/5 227/1/5
f 229/3/6 230/3/6 231/3/6
f 231/3/6 230/3/6 232/3/6
f 233/2/6 234/2/6 235/2/6
f 235/2/6 234/2/6 236/2/6
f 237/3/6 238/3/6 239/3/6
f 239/3/6 238/3/6 240/3/6
f 241/2/6 242/2/6 243/2/6
f 243/2/6 242/2/6 244/2/6
f 245/2/6 246/2/6 247/2/6
f 247/2/6 246/2/6 248/2/6
f 249/3/6 250/3/6 251/3/6
f 251/3/6 250/3/6 252/3/6
f 253/2/6 254/2/6 255/2/6
f 255/2/6 254/2/6 256/2/6
f 257/3/6 258/3/6 259/3/6
f 259/3/6 258/3/6 260/3/6
f 261/1/6 262/1/6 263/1/6
f 263/1/6 262/1/6 264/1/6
